<?xml version="1.0" encoding="UTF-8"?>
<svg version="1.1" xmlns="http://www.w3.org/2000/svg" width="1359" height="494">
<path d="M0 0 C20.13 0 40.26 0 61 0 C61 0.66 61 1.32 61 2 C61.99 2.33 62.98 2.66 64 3 C64 7.62 64 12.24 64 17 C64.66 17 65.32 17 66 17 C66.06058594 17.92039063 66.12117188 18.84078125 66.18359375 19.7890625 C66.76204429 28.52811523 67.36739536 37.26467205 68 46 C68.66 46 69.32 46 70 46 C70.16965655 48.3539847 70.3357935 50.70813384 70.5 53.0625 C70.5928125 54.37347656 70.685625 55.68445313 70.78125 57.03515625 C70.9834902 60.70075995 71.0381804 64.32990952 71 68 C71.66 68 72.32 68 73 68 C74.53653322 77.79539929 75.27538262 87.07092668 75 97 C75.66 97 76.32 97 77 97 C77.495 100.465 77.495 100.465 78 104 C79.98522309 95.01265161 81.1644033 85.94549399 82.37268066 76.82884979 C82.75642919 73.93590766 83.14469252 71.04360301 83.53417969 68.15142822 C84.6398871 59.93546725 85.7381582 51.71852112 86.83203125 43.50097656 C87.50373688 38.45727905 88.18111661 33.41436946 88.86193848 28.37189484 C89.11930172 26.45688541 89.37445251 24.54157727 89.62731934 22.62596893 C89.98061646 19.95009941 90.34108857 17.27528503 90.703125 14.60058594 C90.80500122 13.81500305 90.90687744 13.02942017 91.01184082 12.22003174 C91.11266968 11.48578979 91.21349854 10.75154785 91.31738281 9.99505615 C91.40143372 9.36463284 91.48548462 8.73420952 91.57208252 8.08468246 C92.13786606 5.32835893 93.11020056 2.66939832 94 0 C114.46 0 134.92 0 156 0 C156 66.33 156 132.66 156 201 C143.46 201 130.92 201 118 201 C117.67 164.37 117.34 127.74 117 90 C116.34 93.96 115.68 97.92 115 102 C114.34 102 113.68 102 113 102 C112.29453448 110.33049713 111.63195215 118.66360998 111 127 C110.34 127 109.68 127 109 127 C108.29453448 135.33049713 107.63195215 143.66360998 107 152 C106.34 152 105.68 152 105 152 C104.29453448 160.33049713 103.63195215 168.66360998 103 177 C102.34 177 101.68 177 101 177 C100.25548301 184.95598063 100.25548301 184.95598063 100 192.9375 C100 196 100 196 99 201 C85.8 201 72.6 201 59 201 C51.94465667 160.34269323 44.96561705 119.67279838 38 79 C37.67 119.26 37.34 159.52 37 201 C24.46 201 11.92 201 -1 201 C-1.02254892 175.08816318 -1.04098029 149.17633426 -1.05181217 123.26449013 C-1.05697465 111.23394037 -1.06401643 99.20339714 -1.07543945 87.17285156 C-1.08538777 76.69047936 -1.09185378 66.20811187 -1.09408849 55.72573507 C-1.09539535 50.17230036 -1.09847963 44.61887915 -1.10573006 39.06544876 C-1.11249258 33.84366166 -1.11461648 28.62189368 -1.11310768 23.40010262 C-1.1133839 21.47877333 -1.11538765 19.55744344 -1.11920547 17.63611794 C-1.12414633 15.02249428 -1.12299681 12.40894379 -1.12025452 9.7953186 C-1.12462378 8.64260906 -1.12462378 8.64260906 -1.12908131 7.46661246 C-1.11412121 2.22824242 -1.11412121 2.22824242 0 0 Z M62 3 C62 4.98 62 6.96 62 9 C62.33 9 62.66 9 63 9 C63 7.02 63 5.04 63 3 C62.67 3 62.34 3 62 3 Z M65 25 C65 26.98 65 28.96 65 31 C65.33 31 65.66 31 66 31 C66 29.02 66 27.04 66 25 C65.67 25 65.34 25 65 25 Z M69 54 C69 55.98 69 57.96 69 60 C69.33 60 69.66 60 70 60 C70 58.02 70 56.04 70 54 C69.67 54 69.34 54 69 54 Z M72 76 C72 77.98 72 79.96 72 82 C72.33 82 72.66 82 73 82 C73 80.02 73 78.04 73 76 C72.67 76 72.34 76 72 76 Z M73 83 C73 84.98 73 86.96 73 89 C73.33 89 73.66 89 74 89 C74 87.02 74 85.04 74 83 C73.67 83 73.34 83 73 83 Z M115 83 C115 84.98 115 86.96 115 89 C115.33 89 115.66 89 116 89 C116 87.02 116 85.04 116 83 C115.67 83 115.34 83 115 83 Z M114 90 C114 91.65 114 93.3 114 95 C114.33 95 114.66 95 115 95 C115 93.35 115 91.7 115 90 C114.67 90 114.34 90 114 90 Z M76 105 C76.33 109.29 76.66 113.58 77 118 C77.33 118 77.66 118 78 118 C78.07654536 113.48382401 78.10228696 109.40914783 77 105 C76.67 105 76.34 105 76 105 Z M110 115 C110 116.65 110 118.3 110 120 C110.33 120 110.66 120 111 120 C111 118.35 111 116.7 111 115 C110.67 115 110.34 115 110 115 Z M106 140 C106 141.65 106 143.3 106 145 C106.33 145 106.66 145 107 145 C107 143.35 107 141.7 107 140 C106.67 140 106.34 140 106 140 Z M102 165 C102 166.65 102 168.3 102 170 C102.33 170 102.66 170 103 170 C103 168.35 103 166.7 103 165 C102.67 165 102.34 165 102 165 Z M98 190 C98 191.65 98 193.3 98 195 C98.33 195 98.66 195 99 195 C99 193.35 99 191.7 99 190 C98.67 190 98.34 190 98 190 Z " fill="#EE8020" transform="translate(125,134)"/>
<path d="M0 0 C1.24426758 -0.00193359 1.24426758 -0.00193359 2.51367188 -0.00390625 C3.37669922 -0.00003906 4.23972656 0.00382813 5.12890625 0.0078125 C5.98806641 0.00394531 6.84722656 0.00007812 7.73242188 -0.00390625 C8.97862305 -0.00197266 8.97862305 -0.00197266 10.25 0 C11.00595459 0.00112793 11.76190918 0.00225586 12.54077148 0.00341797 C17.52693643 0.30341427 19.84637958 1.97791883 23.69140625 5.1328125 C24.68140625 5.4628125 25.67140625 5.7928125 26.69140625 6.1328125 C36.23578475 14.42546923 39.99185925 28.3169376 40.85980606 40.49575806 C41.13194661 46.99771393 41.08683366 53.50164202 41.0546875 60.0078125 C41.05416746 62.10660807 41.0546907 64.20540413 41.05619812 66.30419922 C41.05610893 70.68139006 41.04578831 75.05839472 41.02758789 79.43554688 C41.00490304 85.00971266 41.00436259 90.58360714 41.01110554 96.1578064 C41.01446774 100.48529415 41.00777328 104.81272151 40.9979763 109.14019775 C40.99416274 111.19402754 40.99295988 113.24786408 40.99456215 115.30169678 C40.99941185 152.46869133 40.99941185 152.46869133 30.69140625 165.1328125 C28.86660801 166.76843079 27.01285936 168.32697099 25.08203125 169.8359375 C24.623125 170.26390625 24.16421875 170.691875 23.69140625 171.1328125 C23.69140625 171.7928125 23.69140625 172.4528125 23.69140625 173.1328125 C22.51578125 173.349375 22.51578125 173.349375 21.31640625 173.5703125 C18.72719607 174.01080175 18.72719607 174.01080175 16.69140625 175.1328125 C12.72346452 175.52761437 8.7369734 175.64753631 4.75390625 175.8203125 C3.64337891 175.88025391 2.53285156 175.94019531 1.38867188 176.00195312 C0.32455078 176.04900391 -0.73957031 176.09605469 -1.8359375 176.14453125 C-2.81296631 176.19053467 -3.78999512 176.23653809 -4.79663086 176.28393555 C-7.30859375 176.1328125 -7.30859375 176.1328125 -10.30859375 174.1328125 C-14.26859375 171.6578125 -14.26859375 171.6578125 -18.30859375 169.1328125 C-18.30859375 181.6728125 -18.30859375 194.2128125 -18.30859375 207.1328125 C-32.49859375 207.1328125 -46.68859375 207.1328125 -61.30859375 207.1328125 C-61.30859375 139.8128125 -61.30859375 72.4928125 -61.30859375 3.1328125 C-47.11859375 3.1328125 -32.92859375 3.1328125 -18.30859375 3.1328125 C-17.81359375 6.1028125 -17.81359375 6.1028125 -17.30859375 9.1328125 C-16.96828125 8.17375 -16.96828125 8.17375 -16.62109375 7.1953125 C-15.30859375 5.1328125 -15.30859375 5.1328125 -12.87109375 4.5703125 C-11.60265625 4.35375 -11.60265625 4.35375 -10.30859375 4.1328125 C-8.68344907 2.67447892 -8.68344907 2.67447892 -7.30859375 1.1328125 C-4.53762878 0.20915751 -2.85998702 0.00427365 0 0 Z M-15.62109375 36.4453125 C-18.61187241 41.20840443 -18.46255372 45.46498709 -18.46972656 50.9152832 C-18.47469147 51.81316559 -18.47965637 52.71104797 -18.48477173 53.63613892 C-18.49939175 56.61029829 -18.50619523 59.58440432 -18.51171875 62.55859375 C-18.51747049 64.62501528 -18.52322822 66.69143678 -18.5289917 68.75785828 C-18.53950134 73.09305063 -18.5453442 77.42822443 -18.54882812 81.76342773 C-18.55431164 87.31518523 -18.57833689 92.86669732 -18.60680008 98.41837788 C-18.62543518 102.68807183 -18.63063254 106.95770679 -18.632164 111.22743797 C-18.63518926 113.27394133 -18.64321352 115.32044368 -18.65634918 117.36690712 C-18.67342711 120.23218002 -18.67152505 123.09685488 -18.66503906 125.9621582 C-18.67425385 126.8054921 -18.68346863 127.64882599 -18.69296265 128.51771545 C-18.65672839 133.63441121 -18.15245397 138.28895228 -14.30859375 142.1328125 C-12.78931337 142.20461214 -11.26691893 142.21673257 -9.74609375 142.1953125 C-8.91980469 142.18628906 -8.09351563 142.17726563 -7.2421875 142.16796875 C-6.60410156 142.15636719 -5.96601562 142.14476562 -5.30859375 142.1328125 C0.39512942 132.4612819 -1.14539804 120.24613607 -1.140625 109.359375 C-1.13740556 107.62739027 -1.13404099 105.89540581 -1.13053894 104.16342163 C-1.12457434 100.5441627 -1.12269633 96.92492756 -1.12329102 93.30566406 C-1.12339259 88.69401619 -1.10973298 84.08252242 -1.09251881 79.47091103 C-1.0813401 75.89673171 -1.07937359 72.32258901 -1.07990074 68.74839401 C-1.07872975 67.04933516 -1.07435813 65.35027507 -1.06656837 63.65123367 C-0.56597961 50.14315938 -0.56597961 50.14315938 -3.30859375 37.1328125 C-5.75147224 34.86570607 -6.98246954 34.18716653 -10.30859375 33.6328125 C-13.48780886 33.86398984 -13.48780886 33.86398984 -15.62109375 36.4453125 Z " fill="#1B476E" transform="translate(851.30859375,161.8671875)"/>
<path d="M0 0 C14.19 0 28.38 0 43 0 C43.495 20.295 43.495 20.295 44 41 C46.64 37.7 49.28 34.4 52 31 C58.44221922 28.85259359 63.01102732 27.85469599 69.75 27.9375 C70.44738281 27.94201172 71.14476562 27.94652344 71.86328125 27.95117188 C73.57555803 27.9628998 75.28779033 27.98083347 77 28 C77.495 28.99 77.495 28.99 78 30 C80.08807 30.61272305 80.08807 30.61272305 82.5 31 C84.96875 31.4375 84.96875 31.4375 87 32 C87.33 32.66 87.66 33.32 88 34 C88.66 34.33 89.32 34.66 90 35 C100.12084827 46.59560044 102.31043547 57.87911029 102.22705078 72.94335938 C102.22648583 74.34353629 102.22680486 75.7437138 102.22793579 77.14389038 C102.22850703 80.92434043 102.21678993 84.70466224 102.20278788 88.48508263 C102.19024225 92.44353959 102.18910701 96.40199985 102.18673706 100.36047363 C102.18053352 107.84717089 102.16413801 115.33380938 102.14403808 122.82048082 C102.12164396 131.3477026 102.11067683 139.87492725 102.10064721 148.40217113 C102.07977072 165.93482079 102.04310863 183.46738994 102 201 C88.14 201 74.28 201 60 201 C59.98541748 196.96168945 59.97083496 192.92337891 59.95581055 188.76269531 C59.90553627 175.43936964 59.83910512 162.11616598 59.76428509 148.79295731 C59.71930576 140.71289625 59.67989609 132.63287949 59.65356445 124.55273438 C59.63060161 117.51066263 59.59722292 110.46873079 59.55129844 103.42676997 C59.52734291 99.6975501 59.50862949 95.96846898 59.50238609 92.23917389 C59.49522385 88.0775423 59.46480948 83.91639414 59.43237305 79.75488281 C59.43380814 78.51626495 59.43524323 77.27764709 59.4367218 76.00149536 C59.42418365 74.86850006 59.41164551 73.73550476 59.39872742 72.56817627 C59.39411845 71.58370136 59.38950949 70.59922646 59.38476086 69.58491898 C58.93656492 66.57382738 58.06967036 65.19997468 56 63 C53.36059918 62.02618881 50.80356269 61.84197037 48 62 C45.2943688 63.74556852 45.03406018 64.89781945 44 68 C43.89789955 69.80119889 43.85368393 71.60590681 43.84178162 73.40995789 C43.8319928 74.53316437 43.82220398 75.65637085 43.81211853 76.81361389 C43.80636307 78.04647629 43.8006076 79.27933868 43.79467773 80.54956055 C43.78477814 81.84722351 43.77487854 83.14488647 43.76467896 84.48187256 C43.73763424 88.04147902 43.71662234 91.60109873 43.69667697 95.1607511 C43.67481475 98.88037009 43.64742721 102.59994825 43.62062073 106.3195343 C43.57069704 113.36364795 43.525757 120.40778427 43.48259836 127.45194227 C43.43322323 135.47123321 43.37830612 143.49048319 43.32291877 151.50973451 C43.20910368 168.00645328 43.10299524 184.50320959 43 201 C28.81 201 14.62 201 0 201 C0 134.67 0 68.34 0 0 Z " fill="#1B476E" transform="translate(558,134)"/>
<path d="M0 0 C0.495 0.99 0.495 0.99 1 2 C3.05376006 2.61365708 3.05376006 2.61365708 5.4375 3 C9.78082192 3.78082192 9.78082192 3.78082192 12 6 C12.99 6.66 13.98 7.32 15 8 C28.65063341 21.65063341 31.91363017 40.43048677 32 59 C30.07742825 60.92257175 27.21914892 60.12908424 24.66125488 60.13894653 C23.77272827 60.1369223 22.88420166 60.13489807 21.96875 60.1328125 C21.06249878 60.13376923 20.15624756 60.13472595 19.22253418 60.13571167 C17.30248953 60.13639353 15.38244259 60.13453882 13.46240234 60.13037109 C10.51264296 60.12502292 7.56303586 60.13031588 4.61328125 60.13671875 C2.75260383 60.13605797 0.8919265 60.13477681 -0.96875 60.1328125 C-2.30153992 60.13584885 -2.30153992 60.13584885 -3.66125488 60.13894653 C-9.88505012 60.11494988 -9.88505012 60.11494988 -11 59 C-11.23743476 55.17466217 -11.39667966 51.35580771 -11.51757812 47.52539062 C-11.55173828 46.72423828 -11.58589844 45.92308594 -11.62109375 45.09765625 C-11.6461499 44.36039307 -11.67120605 43.62312988 -11.69702148 42.86352539 C-11.85314702 40.75720731 -11.85314702 40.75720731 -14 39 C-16.68839385 38.73008094 -19.29141936 38.91262643 -22 39 C-24.89890038 46.85957737 -24.89890038 46.85957737 -24 55 C-22.15811388 57.05270463 -22.15811388 57.05270463 -20 58 C-19.85848511 58.84075073 -19.85848511 58.84075073 -19.71411133 59.69848633 C-18.63151317 63.1875984 -16.11254991 65.31501911 -13.57421875 67.82421875 C-13.03021927 68.37108841 -12.48621979 68.91795807 -11.92573547 69.48139954 C-10.77522221 70.63395146 -9.62092295 71.78273478 -8.46313477 72.92797852 C-6.69384202 74.68121553 -4.94110681 76.44986267 -3.18945312 78.22070312 C-2.06866896 79.33950482 -0.94695451 80.45737553 0.17578125 81.57421875 C0.69884354 82.10335373 1.22190582 82.63248871 1.76081848 83.17765808 C4.41393571 85.78029299 6.29539396 87.42703862 10 88 C13.81737476 91.16296766 13.81737476 91.16296766 14.421875 93.93359375 C15.13258204 96.47389121 16.1830374 97.41763099 18.0625 99.25 C29.99972221 112.54092782 33.65801813 129.79444771 33.21875 147.21875 C32.36743328 161.93436757 29.74611399 174.73326887 23 188 C22.67 188.99 22.34 189.98 22 191 C20.6846659 191.70151152 19.34882408 192.36525925 18 193 C16.41236657 194.46062276 15.0180451 195.97867398 13.625 197.625 C11.50402748 199.41966906 9.71300565 199.53680391 7 200 C4.43129043 201.13325422 2.35355256 202.43096496 0 204 C-4.31698889 204.38958868 -8.64411597 204.32906394 -12.9765625 204.31567383 C-15.09689076 204.31254153 -17.21578456 204.33587641 -19.3359375 204.36132812 C-26.77035499 204.39628345 -33.15300264 204.07890144 -40 201 C-40.495 200.01 -40.495 200.01 -41 199 C-42.32488113 198.63451555 -43.66018514 198.3062434 -45 198 C-52.96184137 194.64084583 -58.49350332 185.56936382 -62 178 C-65.7626321 166.09613675 -66.52012557 154.84355477 -66.25 142.4375 C-66.1675 137.013125 -66.085 131.58875 -66 126 C-52.14 126 -38.28 126 -24 126 C-23.67 137.88 -23.34 149.76 -23 162 C-18.78370866 164.10814567 -16.60209225 164.17700355 -12 164 C-7.45706675 155.29271127 -8.28077847 146.26280275 -11 137 C-13.19550749 130.6215825 -16.78149698 125.86413449 -21.3671875 120.98828125 C-21.8918158 120.42516235 -22.41644409 119.86204346 -22.95697021 119.28186035 C-26.73768455 115.25780158 -30.6259278 111.3550624 -34.578125 107.5 C-35.12618805 106.96437943 -35.6742511 106.42875885 -36.23892212 105.87690735 C-38.46785859 103.70200632 -40.69780017 101.52868844 -42.94726562 99.375 C-56.42864103 86.43785543 -65.85441911 72.9995237 -66.46850586 53.64697266 C-66.62487992 38.64233557 -64.79608217 25.03170258 -55 13 C-52.75842969 10.83692826 -50.44118567 8.94298451 -48 7 C-48 6.34 -48 5.68 -48 5 C-44.31358239 3.02819523 -41.12445382 1.66883035 -37 1 C-36.01 0.67 -35.02 0.34 -34 0 C-29.77954485 -0.35900219 -25.54477986 -0.46764897 -21.3125 -0.625 C-20.15298828 -0.6765625 -18.99347656 -0.728125 -17.79882812 -0.78125 C-11.7520036 -1.01501013 -5.95138252 -1.19459431 0 0 Z M-7 0 C-3 1 -3 1 -3 1 Z M-25 39 C-24 41 -24 41 -24 41 Z M-26 41 C-25 43 -25 43 -25 43 Z M-27 44 C-27 45.65 -27 47.3 -27 49 C-26.67 49 -26.34 49 -26 49 C-26 47.35 -26 45.7 -26 44 C-26.33 44 -26.66 44 -27 44 Z M-25 155 C-25 156.65 -25 158.3 -25 160 C-24.67 160 -24.34 160 -24 160 C-24 158.35 -24 156.7 -24 155 C-24.33 155 -24.66 155 -25 155 Z M-31 202 C-27 203 -27 203 -27 203 Z M-4 202 C0 203 0 203 0 203 Z " fill="#1B476E" transform="translate(514,134)"/>
<path d="M0 0 C4.08327357 -0.0580772 8.16644083 -0.09362249 12.25 -0.125 C13.98830078 -0.15013672 13.98830078 -0.15013672 15.76171875 -0.17578125 C16.87675781 -0.18222656 17.99179687 -0.18867188 19.140625 -0.1953125 C20.68024902 -0.21102295 20.68024902 -0.21102295 22.25097656 -0.22705078 C25.05910903 0.00488201 26.57349555 0.64984129 29 2 C29.969375 2.12375 30.93875 2.2475 31.9375 2.375 C35.57670444 3.11769478 37.2245947 4.59964947 40 7 C40.99 7.33 41.98 7.66 43 8 C44.71108689 9.62102968 46.37253306 11.29503463 48 13 C48.804375 13.7425 49.60875 14.485 50.4375 15.25 C60.11335492 25.6338443 64.14183295 37.68671051 64.16113281 51.71484375 C64.16858017 53.01597862 64.16858017 53.01597862 64.17617798 54.34339905 C64.19075906 57.20810753 64.19759687 60.07276053 64.203125 62.9375 C64.20888228 64.93945313 64.21463993 66.94140625 64.22039795 68.94335938 C64.23089816 73.14306901 64.23674642 77.34275956 64.24023438 81.54248047 C64.24569971 86.89395698 64.26968986 92.24517657 64.29820633 97.59657288 C64.31694289 101.7352977 64.32204427 105.8739622 64.32357025 110.01272583 C64.32657538 111.98366695 64.33453051 113.95460755 64.34775543 115.92550659 C64.45679785 133.4338554 63.43970625 149.73606705 50.8125 163.1796875 C49.9153125 164.08074219 49.9153125 164.08074219 49 165 C48.443125 165.58007812 47.88625 166.16015625 47.3125 166.7578125 C43.42096464 170.48720055 40.15194385 171.81904528 34.8203125 172.578125 C33.91925781 172.78695312 33.91925781 172.78695312 33 173 C32.67 173.66 32.34 174.32 32 175 C24.82168902 176.38313797 17.53488554 176.14842407 10.25 176.125 C9.03183594 176.12886719 7.81367187 176.13273438 6.55859375 176.13671875 C4.80482422 176.13478516 4.80482422 176.13478516 3.015625 176.1328125 C1.42669434 176.13112061 1.42669434 176.13112061 -0.19433594 176.12939453 C-4.55835218 175.92813029 -7.98228848 174.6482919 -12 173 C-12.99 172.67 -13.98 172.34 -15 172 C-15.66 171.34 -16.32 170.68 -17 170 C-17.63164063 169.70222656 -18.26328125 169.40445313 -18.9140625 169.09765625 C-27.37011267 164.64793697 -33.51730114 153.14484608 -36.3125 144.4375 C-38.54280292 136.89964077 -39.14910197 129.50137965 -39.16113281 121.69482422 C-39.16609772 120.90659775 -39.17106262 120.11837128 -39.17617798 119.30625916 C-39.19067103 116.72239273 -39.19758081 114.13858774 -39.203125 111.5546875 C-39.20595238 110.66379551 -39.20877975 109.77290352 -39.21169281 108.8550148 C-39.22663501 104.13804076 -39.2358952 99.4210969 -39.24023438 94.70410156 C-39.24570432 89.86958046 -39.2697155 85.03534306 -39.29820633 80.20091057 C-39.31697175 76.4498925 -39.3220457 72.69894081 -39.32357025 68.94787979 C-39.32656724 67.16755756 -39.33449374 65.38723565 -39.34775543 63.6069603 C-39.47823432 44.74145334 -37.36217039 27.87592703 -23.5390625 13.7421875 C-21.77931129 12.13762413 -21.77931129 12.13762413 -22 10 C-21.38125 9.87625 -20.7625 9.7525 -20.125 9.625 C-17.80879168 9.12802644 -17.80879168 9.12802644 -16 7 C-12.54731453 3.80306901 -9.5913095 3.56384503 -5 3 C-2.18137797 2.02450239 -2.18137797 2.02450239 0 1 C0 0.67 0 0.34 0 0 Z M6.6875 35.75 C3.27832155 40.29557127 3.84611061 45.41536925 3.83886719 50.89599609 C3.83390228 51.79402451 3.82893738 52.69205292 3.82382202 53.61729431 C3.8092253 56.58601652 3.80240297 59.55468531 3.796875 62.5234375 C3.79112204 64.58842978 3.78536432 66.65342205 3.77960205 68.71841431 C3.76909953 73.0476303 3.76325178 77.37682775 3.75976562 81.70605469 C3.75427875 87.24993641 3.73024331 92.7935728 3.70179367 98.33737755 C3.68316032 102.6027803 3.67796134 106.86812398 3.67642975 111.133564 C3.6734049 113.17727629 3.66538203 115.22098758 3.65224457 117.26465988 C3.63516771 120.12503441 3.63706825 122.98480986 3.64355469 125.84521484 C3.6343399 126.68697769 3.62512512 127.52874054 3.6156311 128.39601135 C3.65190276 133.50857612 4.15958849 138.15958849 8 142 C10.25986007 142.31560616 10.25986007 142.31560616 12.875 142.375 C14.20144531 142.44847656 14.20144531 142.44847656 15.5546875 142.5234375 C18.14600256 142.23108648 18.14600256 142.23108648 19.62857056 140.05432129 C21.52089679 135.83990667 21.41967749 132.17740592 21.38818359 127.60742188 C21.39344055 126.66862686 21.39869751 125.72983185 21.40411377 124.7625885 C21.41729973 121.66447227 21.4085805 118.56687131 21.3984375 115.46875 C21.40045863 113.31310935 21.4033704 111.15746937 21.40713501 109.00183105 C21.41155647 104.4860177 21.40513291 99.97038248 21.39111328 95.45458984 C21.37402165 89.66734386 21.38386377 83.88051528 21.40183067 78.09328461 C21.41267322 73.64260719 21.40921997 69.19202867 21.4014473 64.74134827 C21.3994466 62.60750784 21.40189997 60.47365842 21.40888596 58.33982849 C21.41650802 55.35716989 21.40488527 52.37518647 21.38818359 49.39257812 C21.39425629 48.51138809 21.40032898 47.63019806 21.40658569 46.7223053 C21.35800178 42.03693601 21.15157906 38.74319766 18 35 C13.68318639 33.56106213 10.46277445 32.89303555 6.6875 35.75 Z " fill="#1B476E" transform="translate(712,162)"/>
<path d="M0 0 C1.87461914 -0.01836914 1.87461914 -0.01836914 3.78710938 -0.03710938 C5.58825195 -0.04000977 5.58825195 -0.04000977 7.42578125 -0.04296875 C8.52962158 -0.04707764 9.63346191 -0.05118652 10.77075195 -0.05541992 C13.6783662 0.1867393 15.18349028 0.79354638 17.6875 2.1875 C19.358125 2.4040625 19.358125 2.4040625 21.0625 2.625 C24.81106784 3.20667432 27.39980662 4.3431842 30.6875 6.1875 C30.6875 6.8475 30.6875 7.5075 30.6875 8.1875 C32.28447169 9.45539786 32.28447169 9.45539786 34.3125 10.75 C42.85324127 16.99711464 46.96059389 26.47092361 49.22900391 36.60717773 C49.89282573 41.79085563 49.80961207 46.92798596 49.78515625 52.1484375 C49.78414917 53.16462158 49.78314209 54.18080566 49.78210449 55.2277832 C49.77689175 59.00603369 49.76293053 62.78426804 49.75 66.5625 C49.729375 75.01875 49.70875 83.475 49.6875 92.1875 C30.8775 92.1875 12.0675 92.1875 -7.3125 92.1875 C-7.27289484 105.63564005 -7.27289484 105.63564005 -7.22241211 119.08374023 C-7.219493 120.76285743 -7.21694443 122.44197533 -7.21484375 124.12109375 C-7.20972778 125.00124146 -7.20461182 125.88138916 -7.19934082 126.78820801 C-7.19903104 128.92163879 -7.25005933 131.05498314 -7.3125 133.1875 C-7.6425 133.5175 -7.9725 133.8475 -8.3125 134.1875 C-7.3225 136.4975 -6.3325 138.8075 -5.3125 141.1875 C-2.0125 141.1875 1.2875 141.1875 4.6875 141.1875 C5.0175 129.9675 5.3475 118.7475 5.6875 107.1875 C9.68498257 105.85500581 13.52803716 106.04483671 17.6953125 106.0546875 C19.01715042 106.05325241 19.01715042 106.05325241 20.36569214 106.05178833 C22.22670564 106.05110814 24.08772153 106.0529512 25.94873047 106.05712891 C28.80832189 106.06249216 31.66775714 106.05717194 34.52734375 106.05078125 C36.33333368 106.05144181 38.13932352 106.05272251 39.9453125 106.0546875 C41.23588058 106.05165115 41.23588058 106.05165115 42.55252075 106.04855347 C48.57254128 106.07254128 48.57254128 106.07254128 49.6875 107.1875 C51.41918175 128.53966067 48.95842863 149.16160615 34.87109375 166.0078125 C32.83057163 168.04468432 31.32342796 169.10866029 28.6875 170.1875 C26.18073043 171.40290343 24.02329943 172.63030038 21.6875 174.1875 C18.5 174.3125 18.5 174.3125 15.6875 174.1875 C15.3575 174.8475 15.0275 175.5075 14.6875 176.1875 C10.2034659 176.23701788 5.71957761 176.27327526 1.23535156 176.29736328 C-0.28941623 176.30740744 -1.81416484 176.32104531 -3.33886719 176.33837891 C-5.53325138 176.36269738 -7.72738042 176.37399889 -9.921875 176.3828125 C-11.9013916 176.39852295 -11.9013916 176.39852295 -13.92089844 176.41455078 C-17.10504989 176.20138775 -18.65991291 175.83033865 -21.3125 174.1875 C-22.97642045 173.51400839 -24.64282028 172.8465841 -26.3125 172.1875 C-26.9725 171.8575 -27.6325 171.5275 -28.3125 171.1875 C-29.034375 171.001875 -29.75625 170.81625 -30.5 170.625 C-39.27089741 166.14209688 -44.95024068 155.07459858 -48.3125 146.1875 C-48.9725 146.1875 -49.6325 146.1875 -50.3125 146.1875 C-50.96406409 141.46366037 -51.43200637 136.96775483 -51.3125 132.1875 C-51.9725 132.1875 -52.6325 132.1875 -53.3125 132.1875 C-53.40552904 120.15600826 -53.4764313 108.1246033 -53.51974869 96.09282398 C-53.5405478 90.50486786 -53.56872421 84.91715936 -53.61425781 79.3293457 C-53.65799053 73.92821027 -53.68169471 68.52731175 -53.69200897 63.1260128 C-53.69935138 61.07410648 -53.71368825 59.02221186 -53.73542023 56.97040749 C-54.00542366 30.4010866 -54.00542366 30.4010866 -47.77886963 23.48371887 C-47.29496765 23.05596664 -46.81106567 22.62821442 -46.3125 22.1875 C-44.76403037 20.2221347 -43.43154298 18.42558595 -42.3125 16.1875 C-40.77811613 14.43391844 -39.55912091 13.30258976 -37.4375 12.3125 C-35.08058302 11.20913302 -35.08058302 11.20913302 -32.9375 8.6875 C-30.04170904 5.92960385 -28.13299461 5.20110061 -24.3125 4.1875 C-23.28125 3.836875 -22.25 3.48625 -21.1875 3.125 C-18.3125 2.1875 -18.3125 2.1875 -16 1.625 C-10.70365177 0.25187268 -5.9028181 0.00301626 0 0 Z M-48.3125 26.1875 C-47.3125 28.1875 -47.3125 28.1875 -47.3125 28.1875 Z M-49.3125 28.1875 C-48.3125 30.1875 -48.3125 30.1875 -48.3125 30.1875 Z M-50.3125 31.1875 C-49.3125 34.1875 -49.3125 34.1875 -49.3125 34.1875 Z M-6.625 34.9375 C-9.73515093 39.0843679 -9.43168293 43.06032796 -9.41015625 48.140625 C-9.4087413 48.80084656 -9.40732635 49.46106812 -9.40586853 50.14129639 C-9.40029245 52.24007794 -9.38774447 54.33875095 -9.375 56.4375 C-9.3699819 57.86458179 -9.36541954 59.29166525 -9.36132812 60.71875 C-9.35118377 64.20840832 -9.33160401 67.69783332 -9.3125 71.1875 C-4.3625 71.1875 0.5875 71.1875 5.6875 71.1875 C5.77988892 67.06079495 5.85934732 62.93676095 5.90722656 58.80957031 C5.9272063 57.40905527 5.9544002 56.00862218 5.98925781 54.60839844 C6.18439157 46.56200063 6.22085558 40.11246836 1.6875 33.1875 C-1.90877792 32.86056564 -3.68885888 32.71555537 -6.625 34.9375 Z M-51.3125 34.1875 C-50.3125 38.1875 -50.3125 38.1875 -50.3125 38.1875 Z M5.6875 38.1875 C6.6875 41.1875 6.6875 41.1875 6.6875 41.1875 Z M6.6875 42.1875 C6.6875 51.7575 6.6875 61.3275 6.6875 71.1875 C7.0175 71.1875 7.3475 71.1875 7.6875 71.1875 C7.6875 61.6175 7.6875 52.0475 7.6875 42.1875 C7.3575 42.1875 7.0275 42.1875 6.6875 42.1875 Z M5.6875 137.1875 C6.6875 139.1875 6.6875 139.1875 6.6875 139.1875 Z M-50.3125 138.1875 C-49.3125 142.1875 -49.3125 142.1875 -49.3125 142.1875 Z " fill="#1B476E" transform="translate(1012.3125,161.8125)"/>
<path d="M0 0 C1.12591553 0.00523682 2.25183105 0.01047363 3.41186523 0.01586914 C4.62680664 0.0190918 5.84174805 0.02231445 7.09350586 0.02563477 C8.37290039 0.03401367 9.65229492 0.04239258 10.97045898 0.05102539 C12.2537207 0.05553711 13.53698242 0.06004883 14.85913086 0.06469727 C18.04211921 0.07652994 21.22501661 0.09301471 24.40795898 0.11352539 C24.90295898 1.10352539 24.90295898 1.10352539 25.40795898 2.11352539 C26.50108398 2.07227539 27.59420898 2.03102539 28.72045898 1.98852539 C32.40795898 2.11352539 32.40795898 2.11352539 35.40795898 4.11352539 C36.08858398 4.27852539 36.76920898 4.44352539 37.47045898 4.61352539 C39.40795898 5.11352539 39.40795898 5.11352539 41.40795898 7.11352539 C42.49077148 7.91790039 42.49077148 7.91790039 43.59545898 8.73852539 C53.62157992 17.20502752 58.52086521 27.22253656 60.40795898 40.11352539 C60.6561739 44.23433956 60.64267723 48.33803452 60.60327148 52.46508789 C60.60125732 53.47724365 60.59924316 54.48939941 60.59716797 55.53222656 C60.58680331 59.26770644 60.55888177 63.00312108 60.53295898 66.73852539 C60.49170898 75.11227539 60.45045898 83.48602539 60.40795898 92.11352539 C40.93795898 92.11352539 21.46795898 92.11352539 1.40795898 92.11352539 C1.51108398 98.89915039 1.61420898 105.68477539 1.72045898 112.67602539 C1.745354 114.80499268 1.77024902 116.93395996 1.79589844 119.12744141 C1.8282117 120.83246002 1.86158871 122.53745895 1.89624023 124.24243164 C1.90248413 125.11347534 1.90872803 125.98451904 1.91516113 126.88195801 C2.04328836 132.35570831 2.91794106 136.22335049 5.40795898 141.11352539 C8.04795898 141.11352539 10.68795898 141.11352539 13.40795898 141.11352539 C15.30508761 137.07630254 15.70460908 133.72359665 15.82202148 129.28149414 C15.86069336 127.98920898 15.89936523 126.69692383 15.93920898 125.36547852 C15.97065912 124.01066544 16.00190659 122.65584764 16.03295898 121.30102539 C16.07117649 119.92665268 16.11023038 118.55230295 16.15014648 117.17797852 C16.24431303 113.8232955 16.32994099 110.46861646 16.40795898 107.11352539 C20.40544155 105.7810312 24.24849614 105.9708621 28.41577148 105.98071289 C29.73760941 105.9792778 29.73760941 105.9792778 31.08615112 105.97781372 C32.94716463 105.97713353 34.80818051 105.97897659 36.66918945 105.9831543 C39.52878087 105.98851755 42.38821613 105.98319733 45.24780273 105.97680664 C47.05379267 105.9774672 48.8597825 105.9787479 50.66577148 105.98071289 C51.95633957 105.97767654 51.95633957 105.97767654 53.27297974 105.97457886 C59.29300026 105.99856667 59.29300026 105.99856667 60.40795898 107.11352539 C61.97959132 125.44209214 60.84641603 147.31825823 48.65795898 162.05102539 C44.77285519 166.12890151 40.49937817 168.76817257 35.40795898 171.11352539 C35.40795898 171.77352539 35.40795898 172.43352539 35.40795898 173.11352539 C27.41641039 176.31280787 19.67121771 176.54886475 11.20141602 176.44970703 C9.01598959 176.42584007 6.8317664 176.42920075 4.64624023 176.43579102 C-6.89003266 176.38988592 -6.89003266 176.38988592 -10.59204102 174.11352539 C-12.10873843 173.41694859 -13.62970088 172.72959215 -15.15454102 172.05102539 C-15.91895508 171.70942383 -16.68336914 171.36782227 -17.47094727 171.01586914 C-19.71256497 170.02869286 -19.71256497 170.02869286 -22.59204102 169.11352539 C-24.46862264 167.13458477 -26.15164396 165.04032879 -27.87329102 162.92602539 C-29.55975226 160.86273633 -29.55975226 160.86273633 -32.59204102 160.11352539 C-32.71579102 159.15446289 -32.71579102 159.15446289 -32.84204102 158.17602539 C-33.88724473 153.90811022 -35.73295928 150.08244872 -37.59204102 146.11352539 C-38.25204102 146.11352539 -38.91204102 146.11352539 -39.59204102 146.11352539 C-40.2436051 141.38968576 -40.71154739 136.89378022 -40.59204102 132.11352539 C-41.25204102 132.11352539 -41.91204102 132.11352539 -42.59204102 132.11352539 C-42.68507005 120.08203365 -42.75597231 108.05062869 -42.7992897 96.01884937 C-42.82008882 90.43089325 -42.84826523 84.84318475 -42.89379883 79.25537109 C-42.93753154 73.85423566 -42.96123573 68.45333714 -42.97154999 63.05203819 C-42.97889239 61.00013187 -42.99322927 58.94823725 -43.01496124 56.89643288 C-43.28496467 30.327112 -43.28496467 30.327112 -37.05841064 23.40974426 C-36.57450867 22.98199203 -36.09060669 22.55423981 -35.59204102 22.11352539 C-34.04357138 20.14816009 -32.71108399 18.35161134 -31.59204102 16.11352539 C-30.01214954 14.30793513 -28.7762187 13.19985868 -26.59204102 12.17602539 C-24.4378361 11.22660804 -24.4378361 11.22660804 -23.15454102 9.05102539 C-21.07966346 6.47817723 -19.82906316 6.67648576 -16.59204102 6.11352539 C-14.28647119 5.15665205 -12.0334075 4.11534806 -9.77563477 3.05102539 C-7.72148091 2.16909887 -5.75604983 1.64387328 -3.59204102 1.11352539 C-2.59204102 0.11352539 -2.59204102 0.11352539 0 0 Z M-37.59204102 26.11352539 C-36.59204102 28.11352539 -36.59204102 28.11352539 -36.59204102 28.11352539 Z M-38.59204102 28.11352539 C-37.59204102 30.11352539 -37.59204102 30.11352539 -37.59204102 30.11352539 Z M-39.59204102 31.11352539 C-38.59204102 33.11352539 -38.59204102 33.11352539 -38.59204102 33.11352539 Z M4.09545898 34.92602539 C1.03715904 38.89048828 1.29048757 42.33302766 1.31030273 47.18774414 C1.31171768 47.87157669 1.31313263 48.55540924 1.31459045 49.25996399 C1.32018022 51.44036261 1.33273077 53.6206579 1.34545898 55.80102539 C1.35047531 57.28084161 1.35503799 58.76065945 1.35913086 60.24047852 C1.36929469 63.86489915 1.38887188 67.48909683 1.40795898 71.11352539 C6.35795898 71.11352539 11.30795898 71.11352539 16.40795898 71.11352539 C16.5003479 66.98682034 16.57980631 62.86278634 16.62768555 58.7355957 C16.64766528 57.33508066 16.67485918 55.93464757 16.7097168 54.53442383 C16.90485055 46.48802602 16.94131456 40.03849375 12.40795898 33.11352539 C8.76975854 32.7827799 7.03065038 32.62546997 4.09545898 34.92602539 Z M-40.59204102 34.11352539 C-39.59204102 38.11352539 -39.59204102 38.11352539 -39.59204102 38.11352539 Z M16.40795898 38.11352539 C17.40795898 41.11352539 17.40795898 41.11352539 17.40795898 41.11352539 Z M17.40795898 42.11352539 C17.40795898 51.68352539 17.40795898 61.25352539 17.40795898 71.11352539 C17.73795898 71.11352539 18.06795898 71.11352539 18.40795898 71.11352539 C18.40795898 61.54352539 18.40795898 51.97352539 18.40795898 42.11352539 C18.07795898 42.11352539 17.74795898 42.11352539 17.40795898 42.11352539 Z M16.40795898 137.11352539 C17.40795898 139.11352539 17.40795898 139.11352539 17.40795898 139.11352539 Z M-39.59204102 138.11352539 C-38.59204102 142.11352539 -38.59204102 142.11352539 -38.59204102 142.11352539 Z M21.40795898 174.11352539 C25.40795898 175.11352539 25.40795898 175.11352539 25.40795898 175.11352539 Z " fill="#1B476E" transform="translate(1114.592041015625,161.886474609375)"/>
<path d="M0 0 C13.86 0 27.72 0 42 0 C44.42871732 17.00102124 44.42871732 17.00102124 45.125 24.5 C45.20991699 25.41346191 45.29483398 26.32692383 45.38232422 27.26806641 C46.24960124 37.50612332 46.19504889 47.73442708 46 58 C46.66 58 47.32 58 48 58 C48.08564209 58.92748047 48.17128418 59.85496094 48.25952148 60.81054688 C48.58092795 64.28460141 48.9034886 67.75854492 49.22680664 71.23242188 C49.36593413 72.72977544 49.50461485 74.2271706 49.64282227 75.72460938 C49.84270798 77.88943662 50.04425372 80.0541042 50.24609375 82.21875 C50.36654053 83.51748047 50.4869873 84.81621094 50.61108398 86.15429688 C50.884474 88.85764877 51.18337025 91.54575665 51.52430725 94.24035645 C51.68128586 95.48103882 51.83826447 96.72172119 52 98 C53.44218504 85.87952036 54.82030693 73.75284955 56.1640625 61.62109375 C56.36293772 59.8293454 56.56186243 58.03760255 56.76083374 56.24586487 C57.27750843 51.59202409 57.79352329 46.9381104 58.30938721 42.28417969 C58.93216459 36.66701912 59.55578545 31.04995215 60.17926025 25.43286896 C61.12014303 16.95531639 62.05997335 8.47764774 63 0 C76.53 0 90.06 0 104 0 C105.125 10.125 105.125 10.125 104 14 C103.34 14 102.68 14 102 14 C102.01160156 14.80824219 102.02320313 15.61648437 102.03515625 16.44921875 C102.04417969 17.51785156 102.05320312 18.58648437 102.0625 19.6875 C102.07410156 20.74324219 102.08570313 21.79898438 102.09765625 22.88671875 C102.00865425 25.72410262 101.64939838 28.2438919 101 31 C100.34 31 99.68 31 99 31 C99.01160156 31.80824219 99.02320313 32.61648437 99.03515625 33.44921875 C99.04417969 34.51785156 99.05320312 35.58648437 99.0625 36.6875 C99.07410156 37.74324219 99.08570313 38.79898438 99.09765625 39.88671875 C99.00865425 42.72410262 98.64939838 45.2438919 98 48 C97.34 48 96.68 48 96 48 C96.01160156 48.80824219 96.02320313 49.61648437 96.03515625 50.44921875 C96.04417969 51.51785156 96.05320312 52.58648437 96.0625 53.6875 C96.07410156 54.74324219 96.08570313 55.79898438 96.09765625 56.88671875 C96.00865425 59.72410262 95.64939838 62.2438919 95 65 C94.34 65 93.68 65 93 65 C91.84565925 71.18625497 90.7082686 77.37546214 89.58203125 83.56689453 C89.19781111 85.66817898 88.8098649 87.76878595 88.41796875 89.86865234 C85.47852688 104.67487815 85.47852688 104.67487815 84.95703125 119.70410156 C85.00495488 122.26474817 84.57966628 124.51208116 84 127 C83.34 127 82.68 127 82 127 C82.01160156 127.80824219 82.02320313 128.61648438 82.03515625 129.44921875 C82.04417969 130.51785156 82.05320312 131.58648437 82.0625 132.6875 C82.07410156 133.74324219 82.08570313 134.79898438 82.09765625 135.88671875 C82.00865425 138.72410262 81.64939838 141.2438919 81 144 C80.34 144 79.68 144 79 144 C79.01160156 144.80824219 79.02320313 145.61648438 79.03515625 146.44921875 C79.04417969 147.51785156 79.05320312 148.58648437 79.0625 149.6875 C79.07410156 150.74324219 79.08570313 151.79898438 79.09765625 152.88671875 C79.00865425 155.72410262 78.64939838 158.2438919 78 161 C77.34 161 76.68 161 76 161 C76.01160156 161.80824219 76.02320313 162.61648438 76.03515625 163.44921875 C76.04417969 164.51785156 76.05320312 165.58648437 76.0625 166.6875 C76.07410156 167.74324219 76.08570313 168.79898438 76.09765625 169.88671875 C76.00865425 172.72410262 75.64939838 175.2438919 75 178 C74.34 178 73.68 178 73 178 C72.82984375 178.64066406 72.6596875 179.28132812 72.484375 179.94140625 C68.78558338 193.14294441 68.78558338 193.14294441 63 197 C62.29875 197.165 61.5975 197.33 60.875 197.5 C60.25625 197.665 59.6375 197.83 59 198 C58.67 198.66 58.34 199.32 58 200 C39.85 199.67 21.7 199.34 3 199 C3 172 3 172 4 171 C5.63472882 170.91299658 7.27314055 170.89298937 8.91015625 170.90234375 C9.800979 170.90484131 10.69180176 170.90733887 11.60961914 170.90991211 C12.74906982 170.91901611 13.88852051 170.92812012 15.0625 170.9375 C17.01358853 170.94898828 18.96467921 170.96011453 20.91577148 170.97094727 C23.45788574 170.98547363 23.45788574 170.98547363 26 171 C22.90145859 148.9525659 19.43390076 126.9644315 15.91796875 104.98046875 C15.68589408 103.52856734 15.45382954 102.07666431 15.22177505 100.62475967 C13.17571075 87.82518995 11.12503346 75.0263594 9.0703252 62.22817451 C7.85944303 54.68590997 6.6507592 47.14330077 5.44634038 39.60000116 C4.76797661 35.35250093 4.08613357 31.10557912 3.40160501 26.85906827 C2.88075538 23.62163032 2.36496448 20.38338588 1.84838867 17.14526367 C1.65987839 15.98235809 1.4713681 14.81945251 1.27714539 13.62130737 C1.10767395 12.55290115 0.93820251 11.48449493 0.76359558 10.38371277 C0.61522845 9.45906817 0.46686132 8.53442358 0.31399822 7.58175945 C0 5 0 5 0 0 Z M103 3 C103 4.65 103 6.3 103 8 C103.33 8 103.66 8 104 8 C104 6.35 104 4.7 104 3 C103.67 3 103.34 3 103 3 Z M41 4 C41 7.3 41 10.6 41 14 C41.33 14 41.66 14 42 14 C42 10.7 42 7.4 42 4 C41.67 4 41.34 4 41 4 Z M42 15 C42 18.3 42 21.6 42 25 C42.33 25 42.66 25 43 25 C43 21.7 43 18.4 43 15 C42.67 15 42.34 15 42 15 Z M100 20 C100 21.65 100 23.3 100 25 C100.33 25 100.66 25 101 25 C101 23.35 101 21.7 101 20 C100.67 20 100.34 20 100 20 Z M43 26 C43 29.3 43 32.6 43 36 C43.33 36 43.66 36 44 36 C44 32.7 44 29.4 44 26 C43.67 26 43.34 26 43 26 Z M44 37 C44 40.3 44 43.6 44 47 C44.33 47 44.66 47 45 47 C45 43.7 45 40.4 45 37 C44.67 37 44.34 37 44 37 Z M97 37 C97 38.65 97 40.3 97 42 C97.33 42 97.66 42 98 42 C98 40.35 98 38.7 98 37 C97.67 37 97.34 37 97 37 Z M94 54 C94 55.65 94 57.3 94 59 C94.33 59 94.66 59 95 59 C95 57.35 95 55.7 95 54 C94.67 54 94.34 54 94 54 Z M47 69 C47 72.3 47 75.6 47 79 C47.33 79 47.66 79 48 79 C48 75.7 48 72.4 48 69 C47.67 69 47.34 69 47 69 Z M48 80 C48 83.3 48 86.6 48 90 C48.33 90 48.66 90 49 90 C49 86.7 49 83.4 49 80 C48.67 80 48.34 80 48 80 Z M49 91 C49 94.63 49 98.26 49 102 C49.33 102 49.66 102 50 102 C50 98.37 50 94.74 50 91 C49.67 91 49.34 91 49 91 Z M83 116 C83 117.65 83 119.3 83 121 C83.33 121 83.66 121 84 121 C84 119.35 84 117.7 84 116 C83.67 116 83.34 116 83 116 Z M80 133 C80 134.65 80 136.3 80 138 C80.33 138 80.66 138 81 138 C81 136.35 81 134.7 81 133 C80.67 133 80.34 133 80 133 Z M77 150 C77 151.65 77 153.3 77 155 C77.33 155 77.66 155 78 155 C78 153.35 78 151.7 78 150 C77.67 150 77.34 150 77 150 Z M74 167 C74 168.65 74 170.3 74 172 C74.33 172 74.66 172 75 172 C75 170.35 75 168.7 75 167 C74.67 167 74.34 167 74 167 Z " fill="#EE8020" transform="translate(290,165)"/>
<path d="M0 0 C13.86 0 27.72 0 42 0 C42 56.1 42 112.2 42 170 C28.14 170 14.28 170 0 170 C0 113.9 0 57.8 0 0 Z " fill="#1B476E" transform="translate(905,165)"/>
<path d="M0 0 C5.82076811 -0.02290639 11.641381 -0.04283426 17.4621582 -0.05493164 C19.44393441 -0.05997267 21.42570689 -0.06680538 23.4074707 -0.07543945 C26.24952109 -0.08751515 29.09152247 -0.09323045 31.93359375 -0.09765625 C32.82525742 -0.10281754 33.71692108 -0.10797882 34.63560486 -0.11329651 C36.75740601 -0.11349177 38.8791078 -0.0621003 41 0 C42 1 42 1 42.11352539 4.23461914 C42.11327438 5.66814125 42.10771608 7.10166942 42.09765625 8.53515625 C42.09664917 9.20252808 42.09564209 9.8698999 42.09460449 10.55749512 C42.08935808 13.0591808 42.07539691 15.56084206 42.0625 18.0625 C42.041875 23.651875 42.02125 29.24125 42 35 C28.14 35 14.28 35 0 35 C0 23.45 0 11.9 0 0 Z " fill="#1B476E" transform="translate(1186,300)"/>
<path d="M0 0 C13.86 0 27.72 0 42 0 C42 9.9 42 19.8 42 30 C28.14 30 14.28 30 0 30 C0 20.1 0 10.2 0 0 Z " fill="#1B476E" transform="translate(905,125)"/>
<path d="M0 0 C0.33 0 0.66 0 1 0 C1 67.32 1 134.64 1 204 C0.67 204 0.34 204 0 204 C0 136.68 0 69.36 0 0 Z " fill="#1B476E" transform="translate(788,165)"/>
<path d="M0 0 C0.33 0 0.66 0 1 0 C1 65.67 1 131.34 1 199 C0.67 199 0.34 199 0 199 C0 133.33 0 67.66 0 0 Z " fill="#EE801D" transform="translate(282,136)"/>
<path d="M0 0 C0.33 0 0.66 0 1 0 C1 56.1 1 112.2 1 170 C0.67 170 0.34 170 0 170 C0 113.9 0 57.8 0 0 Z " fill="#1B486F" transform="translate(903,165)"/>
<path d="M0 0 C0.33 0 0.66 0 1 0 C1 46.86 1 93.72 1 142 C0.67 142 0.34 142 0 142 C0 95.14 0 48.28 0 0 Z " fill="#1B4A68" transform="translate(661,193)"/>
<path d="M0 0 C0.33 0 0.66 0 1 0 C1 43.89 1 87.78 1 133 C0.67 133 0.34 133 0 133 C0 89.11 0 45.22 0 0 Z " fill="#19476E" transform="translate(616,202)"/>
<path d="M0 0 C0.33 0 0.66 0 1 0 C1 43.89 1 87.78 1 133 C0.67 133 0.34 133 0 133 C0 89.11 0 45.22 0 0 Z " fill="#1B476D" transform="translate(602,202)"/>
<path d="M0 0 C0.33 0 0.66 0 1 0 C1 38.28 1 76.56 1 116 C0.67 116 0.34 116 0 116 C0 77.72 0 39.44 0 0 Z " fill="#EA7F1C" transform="translate(163,219)"/>
<path d="M0 0 C0.33 0 0.66 0 1 0 C1.75462043 5.36752395 2.14517457 10.59312273 2.12939453 16.01733398 C2.13114685 16.77457764 2.13289917 17.53182129 2.13470459 18.31201172 C2.13906937 20.79006308 2.13620388 23.26804179 2.1328125 25.74609375 C2.13348715 27.48429884 2.13445852 29.22250385 2.13571167 30.96070862 C2.13718143 34.59433902 2.1350576 38.22794475 2.13037109 41.86157227 C2.12467853 46.49918556 2.12795443 51.13674091 2.13394356 55.77435207 C2.13757232 59.36131724 2.1363999 62.94826886 2.13381577 66.53523445 C2.13315267 68.24431426 2.13395312 69.95339534 2.13629532 71.66247368 C2.15383972 88.06233895 2.15383972 88.06233895 1 96 C0.67 96 0.34 96 0 96 C0 64.32 0 32.64 0 0 Z " fill="#1F4671" transform="translate(847,202)"/>
<path d="M0 0 C0.33 0 0.66 0 1 0 C1 32.01 1 64.02 1 97 C0.67 97 0.34 97 0 97 C0 64.99 0 32.98 0 0 Z " fill="#1A466D" transform="translate(731,202)"/>
<path d="M0 0 C0.33 0 0.66 0 1 0 C1 31.02 1 62.04 1 94 C0.67 94 0.34 94 0 94 C0 62.98 0 31.96 0 0 Z " fill="#1B466D" transform="translate(893,201)"/>
<path d="M0 0 C0.33 0 0.66 0 1 0 C1 30.69 1 61.38 1 93 C0.67 93 0.34 93 0 93 C0 62.31 0 31.62 0 0 Z " fill="#1B486E" transform="translate(717,204)"/>
<path d="M0 0 C0.33 0 0.66 0 1 0 C1 30.36 1 60.72 1 92 C0.67 92 0.34 92 0 92 C0 61.64 0 31.28 0 0 Z " fill="#1B476E" transform="translate(834,204)"/>
<path d="M0 0 C0.33 0 0.66 0 1 0 C1 30.03 1 60.06 1 91 C0.67 91 0.34 91 0 91 C0 60.97 0 30.94 0 0 Z " fill="#1A466D" transform="translate(777,205)"/>
<path d="M0 0 C0.33 0 0.66 0 1 0 C1 27.39 1 54.78 1 83 C0.67 83 0.34 83 0 83 C0 55.61 0 28.22 0 0 Z " fill="#1A466E" transform="translate(671,209)"/>
<path d="M0 0 C15.84 0 31.68 0 48 0 C48 0.33 48 0.66 48 1 C32.16 1 16.32 1 0 1 C0 0.67 0 0.34 0 0 Z " fill="#F07F1D" transform="translate(294,365)"/>
<path d="M0 0 C13.86 0 27.72 0 42 0 C42 0.33 42 0.66 42 1 C28.14 1 14.28 1 0 1 C0 0.67 0 0.34 0 0 Z " fill="#1A476E" transform="translate(790,370)"/>
<path d="M0 0 C13.86 0 27.72 0 42 0 C42 0.33 42 0.66 42 1 C28.14 1 14.28 1 0 1 C0 0.67 0 0.34 0 0 Z " fill="#1B476E" transform="translate(558,336)"/>
<path d="M0 0 C13.53 0 27.06 0 41 0 C41 0.33 41 0.66 41 1 C27.47 1 13.94 1 0 1 C0 0.67 0 0.34 0 0 Z " fill="#1B476E" transform="translate(1186,336)"/>
<path d="M0 0 C13.53 0 27.06 0 41 0 C41 0.33 41 0.66 41 1 C27.47 1 13.94 1 0 1 C0 0.67 0 0.34 0 0 Z " fill="#1B476E" transform="translate(906,336)"/>
<path d="M0 0 C13.53 0 27.06 0 41 0 C41 0.33 41 0.66 41 1 C27.47 1 13.94 1 0 1 C0 0.67 0 0.34 0 0 Z " fill="#1B476E" transform="translate(619,336)"/>
<path d="M0 0 C13.53 0 27.06 0 41 0 C41 0.33 41 0.66 41 1 C27.47 1 13.94 1 0 1 C0 0.67 0 0.34 0 0 Z " fill="#1A466E" transform="translate(791,163)"/>
<path d="M0 0 C13.2 0 26.4 0 40 0 C40 0.33 40 0.66 40 1 C26.8 1 13.6 1 0 1 C0 0.67 0 0.34 0 0 Z " fill="#1A466E" transform="translate(906,163)"/>
<path d="M0 0 C0.33 0 0.66 0 1 0 C1.19210448 5.23237936 1.37085125 10.46497767 1.53710938 15.69824219 C1.59558966 17.4792918 1.65775006 19.26022447 1.72363281 21.04101562 C1.81757713 23.59743968 1.89837558 26.15398912 1.9765625 28.7109375 C2.02485703 29.90944839 2.02485703 29.90944839 2.0741272 31.13217163 C2.12738475 33.08754535 2.07296352 35.04526241 2 37 C1.34 37.66 0.68 38.32 0 39 C0 26.13 0 13.26 0 0 Z " fill="#1B466E" transform="translate(602,135)"/>
<path d="M0 0 C12.87 0 25.74 0 39 0 C39 0.33 39 0.66 39 1 C26.13 1 13.26 1 0 1 C0 0.67 0 0.34 0 0 Z " fill="#ED7F1E" transform="translate(354,163)"/>
<path d="M0 0 C12.87 0 25.74 0 39 0 C39 0.33 39 0.66 39 1 C26.13 1 13.26 1 0 1 C0 0.67 0 0.34 0 0 Z " fill="#ED801E" transform="translate(291,163)"/>
<path d="M0 0 C12.87 0 25.74 0 39 0 C39 0.33 39 0.66 39 1 C26.13 1 13.26 1 0 1 C0 0.67 0 0.34 0 0 Z " fill="#18466D" transform="translate(907,123)"/>
<path d="M0 0 C2 2 2 2 2.13525391 5.43994141 C2.09290249 6.91082326 2.03923454 8.38140629 1.9765625 9.8515625 C1.95153656 10.62559418 1.92651062 11.39962585 1.90072632 12.19711304 C1.81844085 14.67351533 1.72188604 17.14913007 1.625 19.625 C1.56676906 21.30205098 1.5094656 22.97913445 1.453125 24.65625 C1.31284966 28.77128769 1.15977348 32.88567508 1 37 C0.67 37 0.34 37 0 37 C0 24.79 0 12.58 0 0 Z " fill="#1B476E" transform="translate(834,332)"/>
<path d="M0 0 C0.33 0 0.66 0 1 0 C1 12.54 1 25.08 1 38 C0.67 38 0.34 38 0 38 C0 25.46 0 12.92 0 0 Z " fill="#1B476E" transform="translate(1063,206)"/>
<path d="M0 0 C12.21 0 24.42 0 37 0 C37 0.33 37 0.66 37 1 C24.79 1 12.58 1 0 1 C0 0.67 0 0.34 0 0 Z " fill="#EE8020" transform="translate(244,336)"/>
<path d="M0 0 C11.88 0 23.76 0 36 0 C36 0.33 36 0.66 36 1 C24.12 1 12.24 1 0 1 C0 0.67 0 0.34 0 0 Z " fill="#EE8020" transform="translate(185,336)"/>
<path d="M0 0 C11.88 0 23.76 0 36 0 C36 0.33 36 0.66 36 1 C24.12 1 12.24 1 0 1 C0 0.67 0 0.34 0 0 Z " fill="#EE8020" transform="translate(125,336)"/>
<path d="M0 0 C0.33 0 0.66 0 1 0 C1 11.22 1 22.44 1 34 C0.67 34 0.34 34 0 34 C0 22.78 0 11.56 0 0 Z " fill="#1B476D" transform="translate(1184,301)"/>
<path d="M0 0 C0.33 0 0.66 0 1 0 C1.24965165 10.554717 0.67901457 20.56612375 -1 31 C-1.33 31 -1.66 31 -2 31 C-1.3616813 20.66466962 -0.69767341 10.33150409 0 0 Z " fill="#1B476E" transform="translate(548,270)"/>
<path d="M0 0 C0.33 0 0.66 0 1 0 C1 9.24 1 18.48 1 28 C0.67 28 0.34 28 0 28 C0 18.76 0 9.52 0 0 Z " fill="#1A476F" transform="translate(903,126)"/>
<path d="M0 0 C0.33 0 0.66 0 1 0 C1 8.25 1 16.5 1 25 C0.67 25 0.34 25 0 25 C0 16.75 0 8.5 0 0 Z " fill="#EE801F" transform="translate(291,338)"/>
<path d="M0 0 C6.6 0 13.2 0 20 0 C20 0.33 20 0.66 20 1 C13.4 1 6.8 1 0 1 C0 0.67 0 0.34 0 0 Z " fill="#1A466D" transform="translate(485,132)"/>
<path d="M0 0 C6.27 0 12.54 0 19 0 C19 0.33 19 0.66 19 1 C12.73 1 6.46 1 0 1 C0 0.67 0 0.34 0 0 Z " fill="#1A466D" transform="translate(1114,338)"/>
<path d="M0 0 C6.27 0 12.54 0 19 0 C19 0.33 19 0.66 19 1 C12.73 1 6.46 1 0 1 C0 0.67 0 0.34 0 0 Z " fill="#1A466D" transform="translate(1001,338)"/>
<path d="M0 0 C0.33 0 0.66 0 1 0 C1.33 5.61 1.66 11.22 2 17 C-0.11126943 12.77746115 -0.2171997 10.85998477 -0.125 6.25 C-0.09792969 4.49429688 -0.09792969 4.49429688 -0.0703125 2.703125 C-0.04710937 1.81109375 -0.02390625 0.9190625 0 0 Z " fill="#1B476D" transform="translate(546,176)"/>
<path d="M0 0 C5.94 0 11.88 0 18 0 C18 0.33 18 0.66 18 1 C12.06 1 6.12 1 0 1 C0 0.67 0 0.34 0 0 Z " fill="#1B476D" transform="translate(716,338)"/>
<path d="M0 0 C5.94 0 11.88 0 18 0 C18 0.33 18 0.66 18 1 C12.06 1 6.12 1 0 1 C0 0.67 0 0.34 0 0 Z " fill="#1A476D" transform="translate(490,338)"/>
<path d="M0 0 C0.33 0 0.66 0 1 0 C1 5.61 1 11.22 1 17 C0.67 17 0.34 17 0 17 C0 11.39 0 5.78 0 0 Z " fill="#1A466D" transform="translate(501,176)"/>
<path d="M0 0 C0.33 0 0.66 0 1 0 C1 5.28 1 10.56 1 16 C0.67 16 0.34 16 0 16 C0 10.72 0 5.44 0 0 Z " fill="#1B476E" transform="translate(1063,270)"/>
<path d="M0 0 C4.95 0 9.9 0 15 0 C15 0.33 15 0.66 15 1 C10.05 1 5.1 1 0 1 C0 0.67 0 0.34 0 0 Z " fill="#1B476E" transform="translate(848,338)"/>
<path d="M0 0 C0.33 0 0.66 0 1 0 C1 3.63 1 7.26 1 11 C0.67 11 0.34 11 0 11 C0 7.37 0 3.74 0 0 Z " fill="#1C466E" transform="translate(446,284)"/>
<path d="M0 0 C0.33 0 0.66 0 1 0 C1 3.63 1 7.26 1 11 C0.67 11 0.34 11 0 11 C0 7.37 0 3.74 0 0 Z " fill="#EE8020" transform="translate(336,212)"/>
<path d="M0 0 C0.33 0 0.66 0 1 0 C1 3.3 1 6.6 1 10 C0.67 10 0.34 10 0 10 C0 6.7 0 3.4 0 0 Z " fill="#1C486E" transform="translate(446,174)"/>
<path d="M0 0 C2.97 0 5.94 0 9 0 C9 0.33 9 0.66 9 1 C6.03 1 3.06 1 0 1 C0 0.67 0 0.34 0 0 Z " fill="#1A466D" transform="translate(1121,161)"/>
<path d="M0 0 C2.97 0 5.94 0 9 0 C9 0.33 9 0.66 9 1 C6.03 1 3.06 1 0 1 C0 0.67 0 0.34 0 0 Z " fill="#1A466D" transform="translate(1008,161)"/>
<path d="M0 0 C0.33 0 0.66 0 1 0 C1 2.64 1 5.28 1 8 C0.67 8 0.34 8 0 8 C0 5.36 0 2.72 0 0 Z " fill="#1B4A70" transform="translate(672,292)"/>
<path d="M0 0 C0.33 0 0.66 0 1 0 C1 2.64 1 5.28 1 8 C0.67 8 0.34 8 0 8 C0 5.36 0 2.72 0 0 Z " fill="#1E496F" transform="translate(504,282)"/>
<path d="M0 0 C0.33 0 0.66 0 1 0 C1 2.64 1 5.28 1 8 C0.67 8 0.34 8 0 8 C0 5.36 0 2.72 0 0 Z " fill="#1B466E" transform="translate(547,262)"/>
<path d="M0 0 C0.33 0 0.66 0 1 0 C1 2.64 1 5.28 1 8 C0.67 8 0.34 8 0 8 C0 5.36 0 2.72 0 0 Z " fill="#1B476E" transform="translate(446,188)"/>
<path d="M0 0 C2.64 0 5.28 0 8 0 C8 0.33 8 0.66 8 1 C5.36 1 2.72 1 0 1 C0 0.67 0 0.34 0 0 Z " fill="#1B476D" transform="translate(721,161)"/>
<path d="M0 0 C0.33 0 0.66 0 1 0 C1 2.31 1 4.62 1 7 C0.67 7 0.34 7 0 7 C0 4.69 0 2.38 0 0 Z " fill="#1B476D" transform="translate(892,297)"/>
<path d="M0 0 C0.33 0 0.66 0 1 0 C1 2.31 1 4.62 1 7 C0.67 7 0.34 7 0 7 C0 4.69 0 2.38 0 0 Z " fill="#EE801E" transform="translate(200,224)"/>
<path d="M0 0 C0.33 0 0.66 0 1 0 C1 2.31 1 4.62 1 7 C0.67 7 0.34 7 0 7 C0 4.69 0 2.38 0 0 Z " fill="#1C466E" transform="translate(672,202)"/>
<path d="M0 0 C0.33 0 0.66 0 1 0 C1 2.31 1 4.62 1 7 C0.67 7 0.34 7 0 7 C0 4.69 0 2.38 0 0 Z " fill="#EE7F1E" transform="translate(196,195)"/>
<path d="M0 0 C0.33 0 0.66 0 1 0 C1 2.31 1 4.62 1 7 C0.67 7 0.34 7 0 7 C0 4.69 0 2.38 0 0 Z " fill="#EE801E" transform="translate(193,173)"/>
<path d="M0 0 C0.33 0 0.66 0 1 0 C1 2.31 1 4.62 1 7 C0.67 7 0.34 7 0 7 C0 4.69 0 2.38 0 0 Z " fill="#EE8221" transform="translate(350,174)"/>
<path d="M0 0 C0.33 0 0.66 0 1 0 C1 2.31 1 4.62 1 7 C0.67 7 0.34 7 0 7 C0 4.69 0 2.38 0 0 Z " fill="#EE801F" transform="translate(192,166)"/>
<path d="M0 0 C2.31 0 4.62 0 7 0 C7 0.33 7 0.66 7 1 C4.69 1 2.38 1 0 1 C0 0.67 0 0.34 0 0 Z " fill="#1A476E" transform="translate(853,161)"/>
<path d="M0 0 C2.31 0 4.62 0 7 0 C7 0.33 7 0.66 7 1 C4.69 1 2.38 1 0 1 C0 0.67 0 0.34 0 0 Z " fill="#1A466D" transform="translate(622,161)"/>
<path d="M0 0 C0.33 0 0.66 0 1 0 C1 2.31 1 4.62 1 7 C0.67 7 0.34 7 0 7 C0 4.69 0 2.38 0 0 Z " fill="#EE7F1E" transform="translate(189,144)"/>
<path d="M0 0 C0.33 0 0.66 0 1 0 C1 1.98 1 3.96 1 6 C0.67 6 0.34 6 0 6 C0 4.02 0 2.04 0 0 Z " fill="#EE8020" transform="translate(366,326)"/>
<path d="M0 0 C0.33 0 0.66 0 1 0 C1 1.98 1 3.96 1 6 C0.67 6 0.34 6 0 6 C0 4.02 0 2.04 0 0 Z " fill="#EE801F" transform="translate(225,317)"/>
<path d="M0 0 C0.33 0 0.66 0 1 0 C1 1.98 1 3.96 1 6 C0.67 6 0.34 6 0 6 C0 4.02 0 2.04 0 0 Z " fill="#EE7F1E" transform="translate(226,311)"/>
<path d="M0 0 C0.33 0 0.66 0 1 0 C1 1.98 1 3.96 1 6 C0.67 6 0.34 6 0 6 C0 4.02 0 2.04 0 0 Z " fill="#EE8020" transform="translate(369,309)"/>
<path d="M0 0 C0.33 0 0.66 0 1 0 C1 1.98 1 3.96 1 6 C0.67 6 0.34 6 0 6 C0 4.02 0 2.04 0 0 Z " fill="#1B476E" transform="translate(1073,294)"/>
<path d="M0 0 C0.33 0 0.66 0 1 0 C1 1.98 1 3.96 1 6 C0.67 6 0.34 6 0 6 C0 4.02 0 2.04 0 0 Z " fill="#1B476E" transform="translate(960,294)"/>
<path d="M0 0 C0.33 0 0.66 0 1 0 C1 1.98 1 3.96 1 6 C0.67 6 0.34 6 0 6 C0 4.02 0 2.04 0 0 Z " fill="#EC801F" transform="translate(372,292)"/>
<path d="M0 0 C0.33 0 0.66 0 1 0 C1 1.98 1 3.96 1 6 C0.67 6 0.34 6 0 6 C0 4.02 0 2.04 0 0 Z " fill="#EE7F1F" transform="translate(229,292)"/>
<path d="M0 0 C0.33 0 0.66 0 1 0 C1 1.98 1 3.96 1 6 C0.67 6 0.34 6 0 6 C0 4.02 0 2.04 0 0 Z " fill="#EE7F1E" transform="translate(230,286)"/>
<path d="M0 0 C0.33 0 0.66 0 1 0 C1 1.98 1 3.96 1 6 C0.67 6 0.34 6 0 6 C0 4.02 0 2.04 0 0 Z " fill="#ED801F" transform="translate(375,275)"/>
<path d="M0 0 C0.33 0 0.66 0 1 0 C1 1.98 1 3.96 1 6 C0.67 6 0.34 6 0 6 C0 4.02 0 2.04 0 0 Z " fill="#EE801F" transform="translate(233,267)"/>
<path d="M0 0 C0.33 0 0.66 0 1 0 C1 1.98 1 3.96 1 6 C0.67 6 0.34 6 0 6 C0 4.02 0 2.04 0 0 Z " fill="#EE801E" transform="translate(377,264)"/>
<path d="M0 0 C0.33 0 0.66 0 1 0 C1 1.98 1 3.96 1 6 C0.67 6 0.34 6 0 6 C0 4.02 0 2.04 0 0 Z " fill="#EE801E" transform="translate(234,261)"/>
<path d="M0 0 C0.33 0 0.66 0 1 0 C1 1.98 1 3.96 1 6 C0.67 6 0.34 6 0 6 C0 4.02 0 2.04 0 0 Z " fill="#ED8020" transform="translate(378,258)"/>
<path d="M0 0 C0.66 0.66 1.32 1.32 2 2 C1.67 2.99 1.34 3.98 1 5 C0.67 3.35 0.34 1.7 0 0 Z " fill="#1B4770" transform="translate(543,249)"/>
<path d="M0 0 C0.33 0 0.66 0 1 0 C1 1.98 1 3.96 1 6 C0.67 6 0.34 6 0 6 C0 4.02 0 2.04 0 0 Z " fill="#EE7E1F" transform="translate(342,248)"/>
<path d="M0 0 C0.33 0 0.66 0 1 0 C1 1.98 1 3.96 1 6 C0.67 6 0.34 6 0 6 C0 4.02 0 2.04 0 0 Z " fill="#EE801E" transform="translate(380,247)"/>
<path d="M0 0 C0.33 0 0.66 0 1 0 C1 1.98 1 3.96 1 6 C0.67 6 0.34 6 0 6 C0 4.02 0 2.04 0 0 Z " fill="#EE8020" transform="translate(237,242)"/>
<path d="M0 0 C0.33 0 0.66 0 1 0 C1 1.98 1 3.96 1 6 C0.67 6 0.34 6 0 6 C0 4.02 0 2.04 0 0 Z " fill="#ED8020" transform="translate(381,241)"/>
<path d="M0 0 C0.33 0 0.66 0 1 0 C1 1.98 1 3.96 1 6 C0.67 6 0.34 6 0 6 C0 4.02 0 2.04 0 0 Z " fill="#EE7F1E" transform="translate(238,236)"/>
<path d="M0 0 C0.33 0 0.66 0 1 0 C1 1.98 1 3.96 1 6 C0.67 6 0.34 6 0 6 C0 4.02 0 2.04 0 0 Z " fill="#EF801F" transform="translate(383,230)"/>
<path d="M0 0 C0.33 0 0.66 0 1 0 C1 1.98 1 3.96 1 6 C0.67 6 0.34 6 0 6 C0 4.02 0 2.04 0 0 Z " fill="#EF801F" transform="translate(386,213)"/>
<path d="M0 0 C0.33 0 0.66 0 1 0 C1 1.98 1 3.96 1 6 C0.67 6 0.34 6 0 6 C0 4.02 0 2.04 0 0 Z " fill="#ED7E1F" transform="translate(346,211)"/>
<path d="M0 0 C0.33 0 0.66 0 1 0 C1 1.98 1 3.96 1 6 C0.67 6 0.34 6 0 6 C0 4.02 0 2.04 0 0 Z " fill="#EE7E20" transform="translate(347,202)"/>
<path d="M0 0 C0.33 0 0.66 0 1 0 C1 1.98 1 3.96 1 6 C0.67 6 0.34 6 0 6 C0 4.02 0 2.04 0 0 Z " fill="#EF811F" transform="translate(389,196)"/>
<path d="M0 0 C0.33 0 0.66 0 1 0 C1 1.98 1 3.96 1 6 C0.67 6 0.34 6 0 6 C0 4.02 0 2.04 0 0 Z " fill="#EE8020" transform="translate(348,193)"/>
<path d="M0 0 C0.33 0 0.66 0 1 0 C1 1.98 1 3.96 1 6 C0.67 6 0.34 6 0 6 C0 4.02 0 2.04 0 0 Z " fill="#EC7E20" transform="translate(349,184)"/>
<path d="M0 0 C0.33 0 0.66 0 1 0 C1 1.98 1 3.96 1 6 C0.67 6 0.34 6 0 6 C0 4.02 0 2.04 0 0 Z " fill="#EE811F" transform="translate(392,179)"/>
<path d="M0 0 C0.33 0 0.66 0 1 0 C1 1.98 1 3.96 1 6 C0.67 6 0.34 6 0 6 C0 4.02 0 2.04 0 0 Z " fill="#1B476E" transform="translate(545,170)"/>
<path d="M0 0 C0.33 0 0.66 0 1 0 C1 1.65 1 3.3 1 5 C0.67 5 0.34 5 0 5 C0 3.35 0 1.7 0 0 Z " fill="#EE8021" transform="translate(363,343)"/>
<path d="M0 0 C0.33 0 0.66 0 1 0 C1 1.65 1 3.3 1 5 C0.67 5 0.34 5 0 5 C0 3.35 0 1.7 0 0 Z " fill="#1B486D" transform="translate(447,296)"/>
<path d="M0 0 C0.33 0 0.66 0 1 0 C1 1.65 1 3.3 1 5 C0.67 5 0.34 5 0 5 C0 3.35 0 1.7 0 0 Z " fill="#1A486D" transform="translate(776,297)"/>
<path d="M0 0 C0.33 0 0.66 0 1 0 C1 1.65 1 3.3 1 5 C0.67 5 0.34 5 0 5 C0 3.35 0 1.7 0 0 Z " fill="#1A476E" transform="translate(503,275)"/>
<path d="M0 0 C0.33 0 0.66 0 1 0 C1 1.65 1 3.3 1 5 C0.67 5 0.34 5 0 5 C0 3.35 0 1.7 0 0 Z " fill="#EF7F1E" transform="translate(376,270)"/>
<path d="M0 0 C0.33 0 0.66 0 1 0 C1 1.65 1 3.3 1 5 C0.67 5 0.34 5 0 5 C0 3.35 0 1.7 0 0 Z " fill="#EF7F1F" transform="translate(379,253)"/>
<path d="M0 0 C0.33 0 0.66 0 1 0 C1 1.65 1 3.3 1 5 C0.67 5 0.34 5 0 5 C0 3.35 0 1.7 0 0 Z " fill="#ED801F" transform="translate(343,239)"/>
<path d="M0 0 C0.33 0 0.66 0 1 0 C1 1.65 1 3.3 1 5 C0.67 5 0.34 5 0 5 C0 3.35 0 1.7 0 0 Z " fill="#EE7F1E" transform="translate(382,236)"/>
<path d="M0 0 C0.33 0 0.66 0 1 0 C1 1.65 1 3.3 1 5 C0.67 5 0.34 5 0 5 C0 3.35 0 1.7 0 0 Z " fill="#EE801F" transform="translate(344,230)"/>
<path d="M0 0 C0.33 0 0.66 0 1 0 C1 1.65 1 3.3 1 5 C0.67 5 0.34 5 0 5 C0 3.35 0 1.7 0 0 Z " fill="#EE7F1E" transform="translate(345,221)"/>
<path d="M0 0 C0.33 0 0.66 0 1 0 C1 1.65 1 3.3 1 5 C0.67 5 0.34 5 0 5 C0 3.35 0 1.7 0 0 Z " fill="#1B466E" transform="translate(1004,203)"/>
<path d="M0 0 C0.33 0 0.66 0 1 0 C1 1.65 1 3.3 1 5 C0.67 5 0.34 5 0 5 C0 3.35 0 1.7 0 0 Z " fill="#1C466F" transform="translate(776,200)"/>
<path d="M0 0 C0.33 0 0.66 0 1 0 C1 1.65 1 3.3 1 5 C0.67 5 0.34 5 0 5 C0 3.35 0 1.7 0 0 Z " fill="#1B466D" transform="translate(892,194)"/>
<path d="M0 0 C0.33 0 0.66 0 1 0 C1 1.65 1 3.3 1 5 C0.67 5 0.34 5 0 5 C0 3.35 0 1.7 0 0 Z " fill="#1B476F" transform="translate(660,188)"/>
<path d="M0 0 C0.33 0 0.66 0 1 0 C1 1.65 1 3.3 1 5 C0.67 5 0.34 5 0 5 C0 3.35 0 1.7 0 0 Z " fill="#EF7F1E" transform="translate(351,166)"/>
<path d="M0 0 C0.99 1.485 0.99 1.485 2 3 C1.01 3.495 1.01 3.495 0 4 C0 2.68 0 1.36 0 0 Z " fill="#1B486D" transform="translate(834,166)"/>
<path d="M0 0 C1 4 1 4 1 4 Z " fill="#EC8120" transform="translate(312,315)"/>
<path d="M0 0 C1 4 1 4 1 4 Z " fill="#1B486E" transform="translate(891,306)"/>
<path d="M0 0 C1 4 1 4 1 4 Z " fill="#1E476E" transform="translate(775,302)"/>
<path d="M0 0 C1 4 1 4 1 4 Z " fill="#1A466E" transform="translate(674,304)"/>
<path d="M0 0 C1 4 1 4 1 4 Z " fill="#1B466E" transform="translate(545,301)"/>
<path d="M0 0 C1 4 1 4 1 4 Z " fill="#1B476E" transform="translate(673,300)"/>
<path d="M0 0 C1 4 1 4 1 4 Z " fill="#ED8020" transform="translate(308,290)"/>
<path d="M0 0 C1 4 1 4 1 4 Z " fill="#1A466D" transform="translate(503,291)"/>
<path d="M0 0 C1 4 1 4 1 4 Z " fill="#1A476D" transform="translate(546,258)"/>
<path d="M0 0 C1 4 1 4 1 4 Z " fill="#1B466E" transform="translate(545,254)"/>
<path d="M0 0 C1 4 1 4 1 4 Z " fill="#1B496F" transform="translate(718,200)"/>
<path d="M0 0 C1 4 1 4 1 4 Z " fill="#1A476D" transform="translate(673,198)"/>
<path d="M0 0 C1 4 1 4 1 4 Z " fill="#1A476E" transform="translate(489,183)"/>
<path d="M0 0 C1 4 1 4 1 4 Z " fill="#1A476E" transform="translate(447,168)"/>
<path d="M0 0 C1 4 1 4 1 4 Z " fill="#1B466F" transform="translate(544,166)"/>
<path d="M0 0 C4 1 4 1 4 1 Z " fill="#1B476D" transform="translate(480,133)"/>
<path d="" fill="#EE801E" transform="translate(0,0)"/>
<path d="M0 0 C3 1 3 1 3 1 Z " fill="#1B476D" transform="translate(864,337)"/>
<path d="M0 0 C3 1 3 1 3 1 Z " fill="#1B466D" transform="translate(1028,336)"/>
<path d="" fill="#EE801F" transform="translate(0,0)"/>
<path d="" fill="#EE801F" transform="translate(0,0)"/>
<path d="" fill="#1D476D" transform="translate(0,0)"/>
<path d="" fill="#1B486D" transform="translate(0,0)"/>
<path d="" fill="#1B486B" transform="translate(0,0)"/>
<path d="" fill="#1D476E" transform="translate(0,0)"/>
<path d="" fill="#EE7F20" transform="translate(0,0)"/>
<path d="" fill="#1B456D" transform="translate(0,0)"/>
<path d="" fill="#1B456D" transform="translate(0,0)"/>
<path d="" fill="#1A486D" transform="translate(0,0)"/>
<path d="" fill="#1B476D" transform="translate(0,0)"/>
<path d="" fill="#1B476D" transform="translate(0,0)"/>
<path d="" fill="#ED801E" transform="translate(0,0)"/>
<path d="" fill="#1B486D" transform="translate(0,0)"/>
<path d="" fill="#1A476D" transform="translate(0,0)"/>
<path d="" fill="#1D476E" transform="translate(0,0)"/>
<path d="" fill="#1B476E" transform="translate(0,0)"/>
<path d="" fill="#EF801F" transform="translate(0,0)"/>
<path d="" fill="#EF7F1F" transform="translate(0,0)"/>
<path d="" fill="#1C496D" transform="translate(0,0)"/>
<path d="" fill="#EC8223" transform="translate(0,0)"/>
<path d="" fill="#1D4570" transform="translate(0,0)"/>
<path d="" fill="#ED7E1F" transform="translate(0,0)"/>
<path d="" fill="#EE7F1E" transform="translate(0,0)"/>
<path d="" fill="#ED7E21" transform="translate(0,0)"/>
<path d="" fill="#ED8020" transform="translate(0,0)"/>
<path d="" fill="#EC8223" transform="translate(0,0)"/>
<path d="" fill="#EE7E1F" transform="translate(0,0)"/>
<path d="" fill="#EE801F" transform="translate(0,0)"/>
<path d="" fill="#EC7E21" transform="translate(0,0)"/>
<path d="" fill="#1B476D" transform="translate(0,0)"/>
<path d="" fill="#1B476E" transform="translate(0,0)"/>
<path d="" fill="#1C476F" transform="translate(0,0)"/>
<path d="" fill="#1C476F" transform="translate(0,0)"/>
<path d="" fill="#ED801F" transform="translate(0,0)"/>
<path d="" fill="#1C456F" transform="translate(0,0)"/>
<path d="" fill="#1B486C" transform="translate(0,0)"/>
<path d="" fill="#1D486F" transform="translate(0,0)"/>
<path d="" fill="#1B486D" transform="translate(0,0)"/>
<path d="" fill="#1B476E" transform="translate(0,0)"/>
<path d="" fill="#1A4A6C" transform="translate(0,0)"/>
<path d="" fill="#EC7F22" transform="translate(0,0)"/>
<path d="" fill="#1A4770" transform="translate(0,0)"/>
<path d="" fill="#EE7E1F" transform="translate(0,0)"/>
<path d="" fill="#EE801F" transform="translate(0,0)"/>
<path d="" fill="#EF7C1C" transform="translate(0,0)"/>
<path d="" fill="#1A476E" transform="translate(0,0)"/>
<path d="" fill="#1C466D" transform="translate(0,0)"/>
<path d="M0 0 C3 1 3 1 3 1 Z " fill="#1C486D" transform="translate(1140,163)"/>
<path d="M0 0 C3 1 3 1 3 1 Z " fill="#1B476E" transform="translate(708,163)"/>
<path d="" fill="#1C476D" transform="translate(0,0)"/>
<path d="M0 0 C3 1 3 1 3 1 Z " fill="#1A476E" transform="translate(515,135)"/>
<path d="M0 0 C2 1 2 1 2 1 Z " fill="#EF7F1F" transform="translate(349,363)"/>
<path d="" fill="#EE7E1E" transform="translate(0,0)"/>
<path d="" fill="#EA8222" transform="translate(0,0)"/>
<path d="" fill="#EC801E" transform="translate(0,0)"/>
<path d="M0 0 C2 1 2 1 2 1 Z " fill="#1B476D" transform="translate(1101,335)"/>
<path d="M0 0 C2 1 2 1 2 1 Z " fill="#1B476D" transform="translate(988,335)"/>
<path d="M0 0 C2 1 2 1 2 1 Z " fill="#1B476E" transform="translate(871,335)"/>
<path d="M0 0 C2 1 2 1 2 1 Z " fill="#1B476E" transform="translate(838,335)"/>
<path d="M0 0 C2 1 2 1 2 1 Z " fill="#1B486D" transform="translate(745,335)"/>
<path d="M0 0 C2 1 2 1 2 1 Z " fill="#1B486E" transform="translate(518,335)"/>
<path d="M0 0 C2 1 2 1 2 1 Z " fill="#1A486E" transform="translate(748,334)"/>
<path d="M0 0 C2 1 2 1 2 1 Z " fill="#1B466D" transform="translate(1150,333)"/>
<path d="M0 0 C2 1 2 1 2 1 Z " fill="#1A476E" transform="translate(1096,333)"/>
<path d="M0 0 C2 1 2 1 2 1 Z " fill="#1B466D" transform="translate(1037,333)"/>
<path d="M0 0 C2 1 2 1 2 1 Z " fill="#1B466E" transform="translate(471,333)"/>
<path d="M0 0 C2 1 2 1 2 1 Z " fill="#1B496E" transform="translate(1152,332)"/>
<path d="" fill="#1C486E" transform="translate(0,0)"/>
<path d="" fill="#1D476D" transform="translate(0,0)"/>
<path d="" fill="#1E4870" transform="translate(0,0)"/>
<path d="" fill="#1B466F" transform="translate(0,0)"/>
<path d="" fill="#1B466F" transform="translate(0,0)"/>
<path d="" fill="#214471" transform="translate(0,0)"/>
<path d="" fill="#1B476B" transform="translate(0,0)"/>
<path d="" fill="#1B466D" transform="translate(0,0)"/>
<path d="" fill="#1C476D" transform="translate(0,0)"/>
<path d="" fill="#1C476D" transform="translate(0,0)"/>
<path d="" fill="#1A466E" transform="translate(0,0)"/>
<path d="" fill="#19466D" transform="translate(0,0)"/>
<path d="" fill="#1A466D" transform="translate(0,0)"/>
<path d="" fill="#19466E" transform="translate(0,0)"/>
<path d="" fill="#1E476E" transform="translate(0,0)"/>
<path d="" fill="#1C486E" transform="translate(0,0)"/>
<path d="" fill="#1C486E" transform="translate(0,0)"/>
<path d="" fill="#1A476F" transform="translate(0,0)"/>
<path d="" fill="#1A466C" transform="translate(0,0)"/>
<path d="" fill="#1A456D" transform="translate(0,0)"/>
<path d="" fill="#1A476F" transform="translate(0,0)"/>
<path d="" fill="#1A476F" transform="translate(0,0)"/>
<path d="" fill="#1A4A6E" transform="translate(0,0)"/>
<path d="" fill="#1B486D" transform="translate(0,0)"/>
<path d="" fill="#1B466F" transform="translate(0,0)"/>
<path d="" fill="#214A6C" transform="translate(0,0)"/>
<path d="" fill="#1E476D" transform="translate(0,0)"/>
<path d="" fill="#1B4A6E" transform="translate(0,0)"/>
<path d="" fill="#1B4870" transform="translate(0,0)"/>
<path d="" fill="#1B466F" transform="translate(0,0)"/>
<path d="" fill="#1A466E" transform="translate(0,0)"/>
<path d="" fill="#1B466E" transform="translate(0,0)"/>
<path d="" fill="#1A466F" transform="translate(0,0)"/>
<path d="" fill="#1A476D" transform="translate(0,0)"/>
<path d="" fill="#1C486E" transform="translate(0,0)"/>
<path d="" fill="#EF801F" transform="translate(0,0)"/>
<path d="" fill="#1B496F" transform="translate(0,0)"/>
<path d="" fill="#1F4A6D" transform="translate(0,0)"/>
<path d="" fill="#EE7F1F" transform="translate(0,0)"/>
<path d="" fill="#1E476E" transform="translate(0,0)"/>
<path d="" fill="#1E4870" transform="translate(0,0)"/>
<path d="" fill="#1B476C" transform="translate(0,0)"/>
<path d="" fill="#1C486E" transform="translate(0,0)"/>
<path d="" fill="#1E456F" transform="translate(0,0)"/>
<path d="" fill="#1E456F" transform="translate(0,0)"/>
<path d="" fill="#EE7F1F" transform="translate(0,0)"/>
<path d="" fill="#1A476D" transform="translate(0,0)"/>
<path d="" fill="#EE801F" transform="translate(0,0)"/>
<path d="" fill="#1D466F" transform="translate(0,0)"/>
<path d="" fill="#1B4870" transform="translate(0,0)"/>
<path d="" fill="#1A466E" transform="translate(0,0)"/>
<path d="" fill="#1A476E" transform="translate(0,0)"/>
<path d="" fill="#1B476E" transform="translate(0,0)"/>
<path d="" fill="#1D4670" transform="translate(0,0)"/>
<path d="" fill="#1D4A6C" transform="translate(0,0)"/>
<path d="" fill="#1B4870" transform="translate(0,0)"/>
<path d="" fill="#1A446D" transform="translate(0,0)"/>
<path d="" fill="#1B476E" transform="translate(0,0)"/>
<path d="" fill="#1B476E" transform="translate(0,0)"/>
<path d="" fill="#1A476E" transform="translate(0,0)"/>
<path d="" fill="#1C486F" transform="translate(0,0)"/>
<path d="" fill="#EE801F" transform="translate(0,0)"/>
<path d="" fill="#1E4770" transform="translate(0,0)"/>
<path d="" fill="#1A476D" transform="translate(0,0)"/>
<path d="" fill="#1E466C" transform="translate(0,0)"/>
<path d="" fill="#1C496C" transform="translate(0,0)"/>
<path d="" fill="#1B466E" transform="translate(0,0)"/>
<path d="" fill="#1C486F" transform="translate(0,0)"/>
<path d="" fill="#1D486C" transform="translate(0,0)"/>
<path d="" fill="#1C456F" transform="translate(0,0)"/>
<path d="" fill="#1D476D" transform="translate(0,0)"/>
<path d="" fill="#1C476F" transform="translate(0,0)"/>
<path d="" fill="#1D476F" transform="translate(0,0)"/>
<path d="" fill="#1A486B" transform="translate(0,0)"/>
<path d="" fill="#1F476F" transform="translate(0,0)"/>
<path d="" fill="#1A476C" transform="translate(0,0)"/>
<path d="" fill="#1E4A6D" transform="translate(0,0)"/>
<path d="" fill="#234572" transform="translate(0,0)"/>
<path d="M0 0 C2 1 2 1 2 1 Z " fill="#1B476F" transform="translate(1150,166)"/>
<path d="M0 0 C2 1 2 1 2 1 Z " fill="#1C466E" transform="translate(1101,165)"/>
<path d="M0 0 C2 1 2 1 2 1 Z " fill="#1C466E" transform="translate(988,165)"/>
<path d="M0 0 C2 1 2 1 2 1 Z " fill="#1A466E" transform="translate(702,165)"/>
<path d="M0 0 C2 1 2 1 2 1 Z " fill="#1B486D" transform="translate(1104,164)"/>
<path d="M0 0 C2 1 2 1 2 1 Z " fill="#1B486D" transform="translate(991,164)"/>
<path d="M0 0 C2 1 2 1 2 1 Z " fill="#1B466E" transform="translate(841,164)"/>
<path d="M0 0 C2 1 2 1 2 1 Z " fill="#1B476E" transform="translate(705,164)"/>
<path d="M0 0 C2 1 2 1 2 1 Z " fill="#1A466D" transform="translate(639,164)"/>
<path d="M0 0 C2 1 2 1 2 1 Z " fill="#1B466F" transform="translate(636,163)"/>
<path d="" fill="#19466E" transform="translate(0,0)"/>
<path d="" fill="#1D456F" transform="translate(0,0)"/>
<path d="" fill="#1B466D" transform="translate(0,0)"/>
<path d="" fill="#1C486E" transform="translate(0,0)"/>
<path d="" fill="#1D476D" transform="translate(0,0)"/>
<path d="" fill="#1C466F" transform="translate(0,0)"/>
<path d="" fill="#1B456F" transform="translate(0,0)"/>
<path d="M0 0 C2 1 2 1 2 1 Z " fill="#1A476E" transform="translate(518,136)"/>
<path d="M0 0 C2 1 2 1 2 1 Z " fill="#1A476E" transform="translate(474,135)"/>
<path d="" fill="#1C476D" transform="translate(0,0)"/>
<path d="" fill="#EF841F" transform="translate(0,0)"/>
<path d="" fill="#EF801E" transform="translate(0,0)"/>
<path d="" fill="#EE7F1D" transform="translate(0,0)"/>
<path d="" fill="#F0821E" transform="translate(0,0)"/>
<path d="" fill="#1C496D" transform="translate(0,0)"/>
<path d="" fill="#1B496C" transform="translate(0,0)"/>
<path d="" fill="#1A476F" transform="translate(0,0)"/>
<path d="" fill="#1D466E" transform="translate(0,0)"/>
<path d="" fill="#1B476D" transform="translate(0,0)"/>
<path d="" fill="#1C4770" transform="translate(0,0)"/>
<path d="" fill="#1F4471" transform="translate(0,0)"/>
<path d="" fill="#1E4370" transform="translate(0,0)"/>
<path d="" fill="#1A476E" transform="translate(0,0)"/>
<path d="" fill="#1C4A6D" transform="translate(0,0)"/>
<path d="" fill="#1D4B6D" transform="translate(0,0)"/>
<path d="" fill="#1E4B6D" transform="translate(0,0)"/>
<path d="" fill="#1B466E" transform="translate(0,0)"/>
<path d="" fill="#1B476D" transform="translate(0,0)"/>
<path d="" fill="#1C476E" transform="translate(0,0)"/>
<path d="" fill="#1C466F" transform="translate(0,0)"/>
<path d="" fill="#20466E" transform="translate(0,0)"/>
<path d="" fill="#18486D" transform="translate(0,0)"/>
<path d="" fill="#1A476F" transform="translate(0,0)"/>
<path d="" fill="#1C476E" transform="translate(0,0)"/>
<path d="" fill="#204A70" transform="translate(0,0)"/>
<path d="" fill="#1A476E" transform="translate(0,0)"/>
<path d="" fill="#19476E" transform="translate(0,0)"/>
<path d="" fill="#214C64" transform="translate(0,0)"/>
<path d="" fill="#1B466E" transform="translate(0,0)"/>
<path d="" fill="#1B486F" transform="translate(0,0)"/>
<path d="" fill="#1C486E" transform="translate(0,0)"/>
<path d="" fill="#1B486F" transform="translate(0,0)"/>
<path d="" fill="#28476B" transform="translate(0,0)"/>
<path d="" fill="#1E476B" transform="translate(0,0)"/>
<path d="" fill="#19486E" transform="translate(0,0)"/>
<path d="" fill="#1A466D" transform="translate(0,0)"/>
<path d="" fill="#1B476C" transform="translate(0,0)"/>
<path d="" fill="#1D496F" transform="translate(0,0)"/>
<path d="" fill="#1F4C6F" transform="translate(0,0)"/>
<path d="" fill="#1E496F" transform="translate(0,0)"/>
<path d="" fill="#254372" transform="translate(0,0)"/>
<path d="" fill="#1C4670" transform="translate(0,0)"/>
<path d="" fill="#1C4B6C" transform="translate(0,0)"/>
<path d="" fill="#1B476D" transform="translate(0,0)"/>
<path d="" fill="#214D6B" transform="translate(0,0)"/>
<path d="" fill="#1C4B6F" transform="translate(0,0)"/>
<path d="" fill="#1C476B" transform="translate(0,0)"/>
<path d="" fill="#1C4B70" transform="translate(0,0)"/>
<path d="" fill="#1D4570" transform="translate(0,0)"/>
<path d="" fill="#1C466F" transform="translate(0,0)"/>
<path d="" fill="#1D4B6A" transform="translate(0,0)"/>
<path d="" fill="#1B466D" transform="translate(0,0)"/>
<path d="" fill="#204E6B" transform="translate(0,0)"/>
<path d="" fill="#1C4B6C" transform="translate(0,0)"/>
<path d="" fill="#1C4B6C" transform="translate(0,0)"/>
<path d="" fill="#19466E" transform="translate(0,0)"/>
<path d="" fill="#1C466D" transform="translate(0,0)"/>
<path d="" fill="#1D456F" transform="translate(0,0)"/>
<path d="" fill="#19476E" transform="translate(0,0)"/>
<path d="" fill="#1A4F6B" transform="translate(0,0)"/>
<path d="" fill="#1E4A70" transform="translate(0,0)"/>
<path d="" fill="#1E4A70" transform="translate(0,0)"/>
<path d="" fill="#1B466D" transform="translate(0,0)"/>
<path d="" fill="#1E4572" transform="translate(0,0)"/>
<path d="" fill="#224276" transform="translate(0,0)"/>
<path d="" fill="#1E496E" transform="translate(0,0)"/>
<path d="" fill="#1A4D6D" transform="translate(0,0)"/>
<path d="" fill="#1E4A6E" transform="translate(0,0)"/>
<path d="" fill="#1E4D69" transform="translate(0,0)"/>
<path d="" fill="#1B466D" transform="translate(0,0)"/>
<path d="" fill="#1E4B6A" transform="translate(0,0)"/>
<path d="" fill="#1E4F6F" transform="translate(0,0)"/>
<path d="" fill="#1A466E" transform="translate(0,0)"/>
<path d="" fill="#1A466E" transform="translate(0,0)"/>
<path d="" fill="#1A466E" transform="translate(0,0)"/>
<path d="" fill="#1B476E" transform="translate(0,0)"/>
<path d="" fill="#1A456C" transform="translate(0,0)"/>
<path d="" fill="#1D4C6C" transform="translate(0,0)"/>
<path d="" fill="#1D4B71" transform="translate(0,0)"/>
<path d="" fill="#1D4670" transform="translate(0,0)"/>
<path d="" fill="#1C4870" transform="translate(0,0)"/>
<path d="" fill="#1B466F" transform="translate(0,0)"/>
<path d="" fill="#1C476E" transform="translate(0,0)"/>
<path d="" fill="#1C4869" transform="translate(0,0)"/>
<path d="" fill="#19476E" transform="translate(0,0)"/>
<path d="" fill="#19476F" transform="translate(0,0)"/>
<path d="" fill="#1C4B6D" transform="translate(0,0)"/>
<path d="" fill="#1F4472" transform="translate(0,0)"/>
<path d="" fill="#1D4B6D" transform="translate(0,0)"/>
<path d="" fill="#1A476E" transform="translate(0,0)"/>
<path d="" fill="#1A476D" transform="translate(0,0)"/>
<path d="" fill="#1A466D" transform="translate(0,0)"/>
<path d="" fill="#1B476E" transform="translate(0,0)"/>
<path d="" fill="#1B466D" transform="translate(0,0)"/>
<path d="" fill="#234972" transform="translate(0,0)"/>
<path d="" fill="#1B476E" transform="translate(0,0)"/>
<path d="" fill="#1A476D" transform="translate(0,0)"/>
<path d="" fill="#1A476E" transform="translate(0,0)"/>
<path d="" fill="#1B456B" transform="translate(0,0)"/>
<path d="" fill="#1C486E" transform="translate(0,0)"/>
<path d="" fill="#19486E" transform="translate(0,0)"/>
<path d="" fill="#1C466E" transform="translate(0,0)"/>
<path d="" fill="#1A476F" transform="translate(0,0)"/>
<path d="" fill="#1F4E69" transform="translate(0,0)"/>
<path d="" fill="#1B476E" transform="translate(0,0)"/>
<path d="" fill="#1A476D" transform="translate(0,0)"/>
<path d="" fill="#1B476D" transform="translate(0,0)"/>
<path d="" fill="#1C476E" transform="translate(0,0)"/>
<path d="" fill="#1C466F" transform="translate(0,0)"/>
<path d="" fill="#1E496F" transform="translate(0,0)"/>
<path d="" fill="#19476F" transform="translate(0,0)"/>
<path d="" fill="#1A466F" transform="translate(0,0)"/>
<path d="" fill="#1B4A71" transform="translate(0,0)"/>
<path d="" fill="#20476E" transform="translate(0,0)"/>
<path d="" fill="#214A6C" transform="translate(0,0)"/>
<path d="" fill="#1E4873" transform="translate(0,0)"/>
<path d="" fill="#244372" transform="translate(0,0)"/>
<path d="" fill="#245068" transform="translate(0,0)"/>
<path d="" fill="#1C476E" transform="translate(0,0)"/>
<path d="" fill="#1A466D" transform="translate(0,0)"/>
<path d="" fill="#214476" transform="translate(0,0)"/>
<path d="" fill="#234970" transform="translate(0,0)"/>
<path d="" fill="#1F486A" transform="translate(0,0)"/>
<path d="" fill="#1F4975" transform="translate(0,0)"/>
<path d="" fill="#1C486D" transform="translate(0,0)"/>
<path d="" fill="#1B486D" transform="translate(0,0)"/>
<path d="" fill="#1F476F" transform="translate(0,0)"/>
<path d="" fill="#224F69" transform="translate(0,0)"/>
<path d="" fill="#1C486C" transform="translate(0,0)"/>
<path d="" fill="#1C486E" transform="translate(0,0)"/>
<path d="" fill="#204970" transform="translate(0,0)"/>
<path d="" fill="#204A70" transform="translate(0,0)"/>
<path d="" fill="#1B486E" transform="translate(0,0)"/>
<path d="" fill="#1E4770" transform="translate(0,0)"/>
<path d="" fill="#1D4A6D" transform="translate(0,0)"/>
<path d="" fill="#1B4973" transform="translate(0,0)"/>
<path d="" fill="#1C4A70" transform="translate(0,0)"/>
<path d="" fill="#1A486E" transform="translate(0,0)"/>
<path d="" fill="#1A476E" transform="translate(0,0)"/>
<path d="" fill="#19466E" transform="translate(0,0)"/>
<path d="" fill="#1C486F" transform="translate(0,0)"/>
<path d="" fill="#19476E" transform="translate(0,0)"/>
<path d="" fill="#1A476F" transform="translate(0,0)"/>
<path d="" fill="#1A486E" transform="translate(0,0)"/>
<path d="" fill="#1A476E" transform="translate(0,0)"/>
<path d="" fill="#18476E" transform="translate(0,0)"/>
<path d="" fill="#1B476F" transform="translate(0,0)"/>
<path d="" fill="#1A4870" transform="translate(0,0)"/>
<path d="" fill="#1B476D" transform="translate(0,0)"/>
<path d="" fill="#1C476D" transform="translate(0,0)"/>
<path d="" fill="#1B476F" transform="translate(0,0)"/>
<path d="" fill="#1C476D" transform="translate(0,0)"/>
<path d="" fill="#1B486E" transform="translate(0,0)"/>
<path d="" fill="#1B476D" transform="translate(0,0)"/>
<path d="" fill="#19456C" transform="translate(0,0)"/>
<path d="" fill="#17496E" transform="translate(0,0)"/>
<path d="" fill="#1C486E" transform="translate(0,0)"/>
<path d="" fill="#1B456E" transform="translate(0,0)"/>
<path d="" fill="#19456C" transform="translate(0,0)"/>
<path d="" fill="#1A466E" transform="translate(0,0)"/>
<path d="" fill="#1F4671" transform="translate(0,0)"/>
<path d="" fill="#1A476D" transform="translate(0,0)"/>
<path d="" fill="#1B486E" transform="translate(0,0)"/>
<path d="" fill="#1B486E" transform="translate(0,0)"/>
<path d="" fill="#1A466F" transform="translate(0,0)"/>
<path d="" fill="#1B476F" transform="translate(0,0)"/>
<path d="" fill="#21466E" transform="translate(0,0)"/>
<path d="" fill="#1A486E" transform="translate(0,0)"/>
<path d="" fill="#1A486E" transform="translate(0,0)"/>
<path d="" fill="#1A476D" transform="translate(0,0)"/>
<path d="" fill="#1C456F" transform="translate(0,0)"/>
<path d="" fill="#1E4E6C" transform="translate(0,0)"/>
<path d="" fill="#1C456F" transform="translate(0,0)"/>
<path d="" fill="#1F4A6F" transform="translate(0,0)"/>
<path d="" fill="#1B466F" transform="translate(0,0)"/>
<path d="" fill="#1A466E" transform="translate(0,0)"/>
<path d="" fill="#234672" transform="translate(0,0)"/>
<path d="" fill="#1B466F" transform="translate(0,0)"/>
<path d="" fill="#1A476E" transform="translate(0,0)"/>
<path d="" fill="#294374" transform="translate(0,0)"/>
<path d="" fill="#1C466E" transform="translate(0,0)"/>
<path d="" fill="#1B466F" transform="translate(0,0)"/>
<path d="" fill="#1B466F" transform="translate(0,0)"/>
<path d="" fill="#1B466D" transform="translate(0,0)"/>
<path d="" fill="#1F476C" transform="translate(0,0)"/>
<path d="" fill="#19466D" transform="translate(0,0)"/>
<path d="" fill="#1B466D" transform="translate(0,0)"/>
<path d="" fill="#19466E" transform="translate(0,0)"/>
<path d="" fill="#1E466F" transform="translate(0,0)"/>
<path d="" fill="#214972" transform="translate(0,0)"/>
<path d="" fill="#1B466D" transform="translate(0,0)"/>
<path d="" fill="#1B4A74" transform="translate(0,0)"/>
<path d="" fill="#1A466D" transform="translate(0,0)"/>
<path d="" fill="#174D6E" transform="translate(0,0)"/>
<path d="" fill="#1C4971" transform="translate(0,0)"/>
<path d="" fill="#1B476F" transform="translate(0,0)"/>
<path d="" fill="#1B466E" transform="translate(0,0)"/>
<path d="" fill="#1E4D70" transform="translate(0,0)"/>
<path d="" fill="#1B486E" transform="translate(0,0)"/>
<path d="" fill="#1B486D" transform="translate(0,0)"/>
<path d="" fill="#19466E" transform="translate(0,0)"/>
<path d="" fill="#234E6D" transform="translate(0,0)"/>
<path d="" fill="#1B4471" transform="translate(0,0)"/>
<path d="" fill="#1C466F" transform="translate(0,0)"/>
<path d="" fill="#1A476E" transform="translate(0,0)"/>
<path d="" fill="#1E4571" transform="translate(0,0)"/>
<path d="" fill="#1E4571" transform="translate(0,0)"/>
<path d="" fill="#1F4B65" transform="translate(0,0)"/>
<path d="" fill="#1B466F" transform="translate(0,0)"/>
<path d="" fill="#1B476E" transform="translate(0,0)"/>
<path d="" fill="#1C486C" transform="translate(0,0)"/>
<path d="" fill="#1B4670" transform="translate(0,0)"/>
<path d="" fill="#1D486B" transform="translate(0,0)"/>
<path d="" fill="#1B4670" transform="translate(0,0)"/>
<path d="" fill="#19456E" transform="translate(0,0)"/>
<path d="" fill="#1E496B" transform="translate(0,0)"/>
<path d="" fill="#1C4C6E" transform="translate(0,0)"/>
<path d="" fill="#1B466D" transform="translate(0,0)"/>
<path d="" fill="#1B466D" transform="translate(0,0)"/>
<path d="" fill="#1C4A71" transform="translate(0,0)"/>
<path d="" fill="#1B466E" transform="translate(0,0)"/>
<path d="" fill="#1B486E" transform="translate(0,0)"/>
<path d="" fill="#1C4B6D" transform="translate(0,0)"/>
<path d="" fill="#1E476C" transform="translate(0,0)"/>
<path d="" fill="#1F476C" transform="translate(0,0)"/>
<path d="" fill="#1E4B71" transform="translate(0,0)"/>
<path d="" fill="#1B496D" transform="translate(0,0)"/>
<path d="" fill="#1B466F" transform="translate(0,0)"/>
<path d="" fill="#1C4C6C" transform="translate(0,0)"/>
<path d="" fill="#1B4A6C" transform="translate(0,0)"/>
<path d="" fill="#1B476E" transform="translate(0,0)"/>
<path d="" fill="#1B496C" transform="translate(0,0)"/>
<path d="" fill="#1B476D" transform="translate(0,0)"/>
<path d="" fill="#1A4471" transform="translate(0,0)"/>
<path d="" fill="#1D486F" transform="translate(0,0)"/>
<path d="" fill="#1C476E" transform="translate(0,0)"/>
<path d="" fill="#19476E" transform="translate(0,0)"/>
<path d="" fill="#1B496E" transform="translate(0,0)"/>
<path d="" fill="#1B466D" transform="translate(0,0)"/>
<path d="" fill="#1E4570" transform="translate(0,0)"/>
<path d="" fill="#ED7F20" transform="translate(0,0)"/>
<path d="" fill="#19476F" transform="translate(0,0)"/>
<path d="" fill="#19486B" transform="translate(0,0)"/>
<path d="" fill="#1A486E" transform="translate(0,0)"/>
<path d="" fill="#1E4671" transform="translate(0,0)"/>
<path d="" fill="#1B476D" transform="translate(0,0)"/>
<path d="" fill="#1D4B6C" transform="translate(0,0)"/>
<path d="" fill="#1B476E" transform="translate(0,0)"/>
<path d="" fill="#1C4571" transform="translate(0,0)"/>
<path d="" fill="#1B466E" transform="translate(0,0)"/>
<path d="" fill="#1C4570" transform="translate(0,0)"/>
<path d="" fill="#1B476F" transform="translate(0,0)"/>
<path d="" fill="#1E4870" transform="translate(0,0)"/>
<path d="" fill="#1B476E" transform="translate(0,0)"/>
<path d="" fill="#1F476E" transform="translate(0,0)"/>
<path d="" fill="#1B466E" transform="translate(0,0)"/>
<path d="" fill="#214870" transform="translate(0,0)"/>
<path d="" fill="#1A476E" transform="translate(0,0)"/>
<path d="" fill="#1B476E" transform="translate(0,0)"/>
<path d="" fill="#1B476E" transform="translate(0,0)"/>
<path d="" fill="#19466E" transform="translate(0,0)"/>
<path d="" fill="#19476E" transform="translate(0,0)"/>
<path d="" fill="#20456F" transform="translate(0,0)"/>
<path d="" fill="#1E486F" transform="translate(0,0)"/>
<path d="" fill="#1B476E" transform="translate(0,0)"/>
</svg>
