<?xml version="1.0" encoding="UTF-8"?>
<svg version="1.1" xmlns="http://www.w3.org/2000/svg" width="512" height="512">
<path d="M0 0 C2.01746506 -0.01715449 4.03326515 -0.06103269 6.05029297 -0.10522461 C7.97035156 -0.11779297 7.97035156 -0.11779297 9.92919922 -0.13061523 C11.68538574 -0.15248901 11.68538574 -0.15248901 13.47705078 -0.17480469 C17.61107383 0.41189499 19.5590555 1.66109486 22.78857422 4.29516602 C24.11273193 7.35263062 24.11273193 7.35263062 24.92041016 10.95288086 C25.07435116 11.60894003 25.22829216 12.2649992 25.38689804 12.94093895 C25.8769326 15.05455208 26.3330635 17.17387432 26.78857422 19.29516602 C27.1048753 20.68344295 27.42327402 22.07124364 27.74377441 23.45855713 C28.7579596 27.88868047 29.72084096 32.32924854 30.67919922 36.77172852 C31.03204335 38.39744543 31.38505368 40.02312628 31.73822021 41.64877319 C32.46999716 45.02143229 33.19906592 48.39466254 33.92626953 51.76831055 C34.85724238 56.08570228 35.7962687 60.40129885 36.73740005 64.71648598 C37.46505516 68.05800125 38.18793011 71.40053698 38.9094162 74.74338913 C39.2538827 76.33611123 39.59995829 77.92848625 39.9477005 79.52049637 C40.43118671 81.73683159 40.90806978 83.95448961 41.38330078 86.17260742 C41.65547424 87.43086334 41.92764771 88.68911926 42.20806885 89.98550415 C42.71096692 92.85269996 42.91245636 95.39684904 42.78857422 98.29516602 C43.35962891 97.84786133 43.93068359 97.40055664 44.51904297 96.93969727 C56.68647497 87.86731951 68.48978629 85.14295413 83.36294556 85.15472412 C84.5356684 85.151753 85.70839123 85.14878188 86.91665113 85.14572072 C90.16358943 85.13855703 93.41049543 85.13586269 96.65744042 85.13512325 C100.1627157 85.13326786 103.66797962 85.12571805 107.17324829 85.11898804 C114.83460983 85.10542355 122.49596612 85.09938285 130.15733767 85.09497738 C134.94455736 85.09221161 139.73177504 85.08797363 144.51899338 85.08347321 C157.78307023 85.07128269 171.04714547 85.06098315 184.3112278 85.05759811 C185.15967037 85.05737855 186.00811294 85.05715898 186.88226589 85.05693276 C187.7326968 85.05671448 188.58312771 85.05649621 189.45932925 85.05627131 C191.18252158 85.05582785 192.90571392 85.05538129 194.62890625 85.05493164 C195.48366257 85.05471021 196.33841889 85.05448878 197.21907692 85.05426064 C211.0619127 85.05031459 224.90469579 85.0328655 238.74751122 85.00957212 C252.97235731 84.98582985 267.19717699 84.97339495 281.4220432 84.9722302 C289.40365113 84.97131502 297.38519038 84.96560247 305.36677933 84.94741058 C312.16472369 84.9319707 318.96257817 84.92691196 325.76053675 84.93514869 C329.22533874 84.93904157 332.68995992 84.9381928 336.15473938 84.92409134 C339.92074745 84.91135377 343.68629574 84.91725912 347.45230103 84.92767334 C348.53384732 84.91961694 349.61539361 84.91156053 350.72971404 84.90325999 C364.96591511 84.99492835 378.48931386 89.01821888 389.10107422 98.79516602 C400.12307955 110.54487219 403.36124373 124.10514129 402.91624737 139.80526733 C402.46823403 148.54248291 401.08927182 157.22703431 399.91455078 165.88891602 C399.60490472 168.22970289 399.29615298 170.57060822 398.98822021 172.91162109 C398.15471576 179.22691671 397.30812975 185.54039289 396.45856953 191.85354614 C395.92766292 195.8066051 395.40016342 199.76010792 394.87450409 203.71386719 C394.74301909 204.70281613 394.74301909 204.70281613 394.60887782 205.71174383 C394.43074573 207.05170612 394.2526247 208.39166988 394.0745146 209.73163509 C392.40944382 222.25482666 390.73179854 234.77630814 389.04960629 247.29720974 C387.61111919 258.00623179 386.1828527 268.71657553 384.76220703 279.42797852 C383.10665473 291.91047346 381.44514008 304.3921501 379.77398276 316.87256622 C379.59528525 318.20719833 379.41659345 319.5418312 379.23790741 320.87646484 C379.15001873 321.53288011 379.06213005 322.18929538 378.97157808 322.86560202 C378.35702344 327.45847104 377.74666713 332.05188647 377.13776398 336.64550781 C376.31549122 342.84541142 375.48407966 349.04402489 374.64585114 355.24179077 C374.34119797 357.5051396 374.03959366 359.76890143 373.7414093 362.03311157 C368.14815984 404.4491397 368.14815984 404.4491397 350.78857422 418.29516602 C339.94387812 425.07469401 339.94387812 425.07469401 335.57373047 425.52172852 C333.38282303 426.23136195 333.38282303 426.23136195 332.36669922 429.50610352 C331.91453015 430.89107126 331.47241725 432.27934873 331.03857422 433.67016602 C326.15226679 447.84818358 317.21420999 458.34572085 303.78857422 465.17016602 C291.33793587 471.1370881 277.37671112 472.49000464 263.97607422 468.73266602 C249.28525047 463.48725329 239.10842823 454.99665443 231.29638672 441.58032227 C229.34569412 437.33023814 228.13231865 432.7743141 226.78857422 428.29516602 C219.52857422 428.29516602 212.26857422 428.29516602 204.78857422 428.29516602 C204.27294922 430.04829102 203.75732422 431.80141602 203.22607422 433.60766602 C198.28833797 448.31692243 188.95782732 458.46472509 175.35498047 465.59594727 C163.22495092 471.37531512 148.93310953 472.33702116 135.97607422 468.73266602 C121.31740467 463.49873407 110.88357125 454.96847324 103.25732422 441.43188477 C101.76607992 438.24712633 100.86928274 435.19018543 99.97607422 431.79516602 C98.75832416 427.64201566 98.75832416 427.64201566 95.64013672 424.86547852 C93.92799327 424.22803434 92.1924447 423.65064595 90.44091797 423.13110352 C80.19928582 419.9032548 71.24165016 410.55658886 66.189785 401.33242035 C60.28524701 388.53378663 59.39195313 373.39613273 57.68603516 359.58227539 C57.40022335 357.32804926 57.11342561 355.07394795 56.82572937 352.81996155 C56.20851281 347.97500549 55.59640461 343.12944098 54.98775482 338.28340149 C54.00651547 330.48640476 53.00221553 322.69246262 51.99298096 314.89904785 C51.81901981 313.55476827 51.64507246 312.21048691 51.47113872 310.86620378 C51.20734508 308.82755718 50.94353793 306.78891233 50.67967592 304.75027457 C49.68580747 297.07075691 48.69451874 289.39090854 47.70605469 281.71069336 C47.61592186 281.0104383 47.52578903 280.31018325 47.4329249 279.58870834 C46.18291343 269.87118438 44.95139837 260.1514624 43.73345715 250.42987001 C41.61375072 233.51317446 39.44662963 216.60312948 37.21044922 199.70141602 C37.12232019 199.03423097 37.03419116 198.36704593 36.94339156 197.67964315 C29.15848487 138.80111428 17.33171339 81.12456671 3.78857422 23.29516602 C2.70318359 23.28098633 1.61779297 23.26680664 0.49951172 23.25219727 C-0.94584191 23.2052702 -2.39115309 23.15702296 -3.83642578 23.10766602 C-4.54927734 23.10186523 -5.26212891 23.09606445 -5.99658203 23.09008789 C-11.6734688 22.85572101 -14.22169285 21.3401414 -18.21142578 17.29516602 C-19.82572501 14.06656755 -19.80713235 10.78522948 -19.21142578 7.29516602 C-14.52915005 -0.86387416 -8.5218429 0.05046777 0 0 Z M56.47607422 117.54516602 C48.74023247 127.43689808 50.98095289 138.67990847 52.37450981 150.35595322 C53.11592868 156.32380313 53.91625314 162.28364676 54.71606445 168.24389648 C55.01878876 170.52698973 55.32109439 172.81013852 55.62301636 175.09333801 C56.43879082 181.2525561 57.26066603 187.41094551 58.08390689 193.56916952 C58.9468565 200.0307429 59.8048494 206.49297473 60.66358948 212.95510864 C62.10502622 223.79746186 63.55077884 234.63923449 64.9987793 245.48071289 C66.48617929 256.61718434 67.96928766 267.7542171 69.44799805 278.8918457 C71.23489834 292.35071963 73.02580894 305.80905236 74.82011604 319.26694107 C75.50373644 324.39490955 76.18580117 329.52308136 76.86660576 334.65142441 C77.66820285 340.68812156 78.47370786 346.72428482 79.28220749 352.76006126 C79.57783558 354.97176475 79.87213226 357.18364668 80.16498375 359.39571953 C80.56564143 362.42039153 80.97117288 365.44437218 81.37791443 368.4682312 C81.49202602 369.33837479 81.60613762 370.20851837 81.72370714 371.10502994 C83.47229442 383.98655527 85.88471835 392.36413843 96.01904297 401.04516602 C97.69974615 402.48748812 97.69974615 402.48748812 99.78857422 402.29516602 C100.30806641 401.20977539 100.82755859 400.12438477 101.36279297 399.00610352 C102.0667827 397.56057794 102.77123447 396.11527731 103.47607422 394.67016602 C103.81574219 393.95731445 104.15541016 393.24446289 104.50537109 392.51000977 C106.23867912 388.97859716 107.98287106 385.88527215 110.55810547 382.89672852 C113.00553597 380.61324453 113.00553597 380.61324453 112.78857422 378.29516602 C113.37638672 378.02317383 113.96419922 377.75118164 114.56982422 377.47094727 C116.74150421 376.32010981 118.40371591 375.04924781 120.28857422 373.48266602 C132.98642642 363.74446357 147.47111796 363.24715959 162.78857422 364.29516602 C171.15085233 365.81321443 180.40259017 369.82623191 186.44091797 375.97875977 C187.71304053 377.52808742 187.71304053 377.52808742 189.78857422 377.29516602 C190.1965625 378.17495117 190.1965625 378.17495117 190.61279297 379.07250977 C191.76576557 381.25204934 193.04299711 382.95426311 194.60107422 384.85766602 C199.3193159 391.0179131 201.92722832 398.14180126 204.78857422 405.29516602 C212.04857422 405.29516602 219.30857422 405.29516602 226.78857422 405.29516602 C227.48982422 403.52141602 228.19107422 401.74766602 228.91357422 399.92016602 C235.2240291 384.77864962 243.80769625 373.86848658 259.22607422 367.35766602 C271.79568497 362.42020241 287.29560443 362.3828292 299.97998047 367.01782227 C305.1348492 369.36224796 310.43577704 371.89219069 314.43701172 375.97875977 C315.71291121 377.5277422 315.71291121 377.5277422 317.78857422 377.29516602 C318.06185547 377.88426758 318.33513672 378.47336914 318.61669922 379.08032227 C319.75213373 381.2262935 320.99430073 382.86874451 322.53857422 384.73266602 C326.64605394 390.0642961 329.14477788 396.14505821 331.78857422 402.29516602 C335.25511641 401.06433543 337.72270906 399.81224481 340.35107422 397.23266602 C340.90923828 396.70543945 341.46740234 396.17821289 342.04248047 395.63500977 C346.60670117 389.51874981 348.41643228 382.68567264 349.33398438 375.22631836 C349.45232415 374.35644004 349.57066393 373.48656172 349.69258976 372.59032345 C350.08396271 369.68882353 350.45571822 366.78515615 350.82763672 363.88110352 C351.10799112 361.77329202 351.38958745 359.6656454 351.6723175 357.55815125 C352.44092288 351.80309936 353.19263299 346.0459517 353.94138718 340.28828812 C354.73577113 334.20133974 355.54514308 328.11638614 356.35327148 322.03125 C357.388383 314.22852925 358.42156918 306.42556555 359.44746399 298.62162781 C361.97877947 279.36945505 364.55094882 260.12303098 367.14412689 240.87909698 C368.39513226 231.59410749 369.64208597 222.30857239 370.8894577 213.02309418 C371.09424856 211.49873285 371.29904439 209.97437219 371.50384521 208.45001221 C371.60481884 207.69842803 371.70579247 206.94684385 371.8098259 206.1724844 C372.52217579 200.87152757 373.23643433 195.57082975 373.95123291 190.27020264 C374.82728774 183.77285865 375.69935221 177.27499227 376.5666694 170.77647597 C377.01231104 167.43820479 377.46025855 164.10028644 377.91170692 160.76279259 C378.4041023 157.12065217 378.88998634 153.47769954 379.37426758 149.83447266 C379.59143905 148.24531068 379.59143905 148.24531068 379.81299782 146.62404442 C381.12395788 136.65871663 382.06331245 127.53668522 376.12451172 118.86547852 C370.18518216 111.64836491 363.97458722 108.50145829 354.78857422 107.29516602 C351.05023892 107.14781983 347.31450844 107.15597808 343.57365417 107.16145325 C342.43965016 107.15918769 341.30564615 107.15692213 340.13727838 107.15458792 C336.33507954 107.14825471 332.53291642 107.14907686 328.73071289 107.14990234 C326.00554774 107.14745382 323.2803851 107.14353614 320.55522156 107.13972473 C313.91952646 107.13142547 307.28384025 107.12867022 300.64814039 107.12811235 C295.2531455 107.12763685 289.85815353 107.12558037 284.46315956 107.12241173 C269.16036504 107.11360712 253.85757752 107.10899205 238.55478045 107.1097422 C237.73015261 107.10978216 236.90552477 107.10982211 236.0559082 107.10986328 C235.2302711 107.10990416 234.404634 107.10994504 233.55397759 107.10998716 C220.17471726 107.11039357 206.79548509 107.10082473 193.41623291 107.08672491 C179.67165666 107.07235463 165.92709414 107.06545509 152.1825102 107.06631869 C144.46873461 107.06665044 136.75498853 107.06391322 129.04121971 107.05314064 C122.47340186 107.04402706 115.90562691 107.04186743 109.33780547 107.04865006 C105.98883441 107.05191096 102.64001262 107.05089674 99.29103851 107.04329681 C95.65543401 107.03558122 92.02004504 107.04021909 88.38444519 107.04792786 C87.33306986 107.04278429 86.28169452 107.03764073 85.19845933 107.0323413 C73.76781284 107.0858392 64.54137229 108.98323629 56.47607422 117.54516602 Z M126.25341797 398.09204102 C120.2406199 406.01561164 119.70840159 414.59307489 120.78857422 424.29516602 C123.61479984 433.54756243 129.34171556 440.61492335 137.74560547 445.41235352 C146.18199779 449.27214085 154.65004418 449.17862515 163.33154297 446.33813477 C171.88664219 442.70663796 178.51595578 435.59360478 182.05810547 427.04907227 C184.19339932 418.99890027 184.10338581 409.71855183 180.11279297 402.28344727 C174.70108545 394.15790411 167.60991172 387.37275664 157.78857422 385.29516602 C144.49109337 384.03886332 134.9142357 387.9546971 126.25341797 398.09204102 Z M253.78857422 398.29516602 C248.56768713 406.27842723 247.54839299 414.98683952 248.78857422 424.29516602 C251.5938501 433.54615211 257.35234813 440.62099304 265.74560547 445.41235352 C274.18199779 449.27214085 282.65004418 449.17862515 291.33154297 446.33813477 C299.88664219 442.70663796 306.51595578 435.59360478 310.05810547 427.04907227 C312.19339932 418.99890027 312.10338581 409.71855183 308.11279297 402.28344727 C302.95676115 394.54179477 297.10611697 389.36309931 288.41357422 385.98266602 C274.320194 383.30978356 263.29347434 387.51823465 253.78857422 398.29516602 Z " fill="#285E96" transform="translate(40.21142578125,20.704833984375)"/>
<path d="M0 0 C5.30020616 3.15174783 9.22263819 7.33459586 11.79296875 12.96484375 C13.52331869 20.83007076 12.47917854 27.09794769 8.48046875 34.08984375 C4.50348071 38.6699769 -0.04514193 41.69525971 -6.16796875 42.390625 C-13.99457533 42.42426371 -20.10888633 41.12006256 -26.1640625 35.73046875 C-29.75485698 31.38426217 -31.68361816 25.62589526 -32.01953125 20.02734375 C-31.04554629 12.3572122 -28.35557464 7.11132382 -22.30078125 2.28125 C-15.79281374 -2.07166687 -7.42181988 -2.68106052 0 0 Z " fill="#FFE33F" transform="translate(329.51953125,416.91015625)"/>
<path d="M0 0 C5.30020616 3.15174783 9.22263819 7.33459586 11.79296875 12.96484375 C13.52331869 20.83007076 12.47917854 27.09794769 8.48046875 34.08984375 C4.50348071 38.6699769 -0.04514193 41.69525971 -6.16796875 42.390625 C-13.99457533 42.42426371 -20.10888633 41.12006256 -26.1640625 35.73046875 C-29.75485698 31.38426217 -31.68361816 25.62589526 -32.01953125 20.02734375 C-31.04554629 12.3572122 -28.35557464 7.11132382 -22.30078125 2.28125 C-15.79281374 -2.07166687 -7.42181988 -2.68106052 0 0 Z " fill="#FFE33F" transform="translate(201.51953125,416.91015625)"/>
</svg>
